<svg xmlns="http://www.w3.org/2000/svg" xmlns:xlink="http://www.w3.org/1999/xlink" version="1.1" width="1000" height="1000" viewBox="0 0 1000 1000" xml:space="preserve">
<desc>Created with Fabric.js 3.5.0</desc>
<defs>
</defs>
<rect x="0" y="0" width="100%" height="100%" fill="rgba(0,0,0,0)"/>
<g transform="matrix(0.6221 0 0 0.6221 581.9633 1065.8662)" id="53487">
<g style="">
		<g transform="matrix(0.1537 -0.1537 0.1395 0.1394 -0.0007 -0.0004)" id="580889">
<path style="stroke: rgb(47,53,64); stroke-width: 2; stroke-dasharray: none; stroke-linecap: butt; stroke-dashoffset: 0; stroke-linejoin: miter; stroke-miterlimit: 4; is-custom-font: none; font-file-url: none; fill: none; fill-rule: nonzero; opacity: 1;" vector-effect="non-scaling-stroke" transform=" translate(-79, -78.5002)" d="M 154.666 37.5934 H 3.33409 C 1.49273 37.5934 0 39.0767 0 40.9067 C 0.0749556 84.2303 35.4007 119.332 79 119.407 C 122.615 119.369 157.962 84.2455 158 40.9067 C 158 39.0767 156.507 37.5934 154.666 37.5934 Z" stroke-linecap="round"/>
</g>
		<g transform="matrix(0.1247 -0.1247 0.0987 0.0987 -0.1502 -0.1669)" id="120498">
<path style="stroke: none; stroke-width: 0; stroke-dasharray: none; stroke-linecap: butt; stroke-dashoffset: 0; stroke-linejoin: miter; stroke-miterlimit: 4; is-custom-font: none; font-file-url: none; fill: rgb(47,53,64); fill-rule: nonzero; opacity: 1;" vector-effect="non-scaling-stroke" transform=" translate(-79, -78.5002)" d="M 154.666 37.5934 H 3.33409 C 1.49273 37.5934 0 39.0767 0 40.9067 C 0.0749556 84.2303 35.4007 119.332 79 119.407 C 122.615 119.369 157.962 84.2455 158 40.9067 C 158 39.0767 156.507 37.5934 154.666 37.5934 Z" stroke-linecap="round"/>
</g>
</g>
</g>
<g transform="matrix(-0.6221 0 0 -0.6221 464.5236 1109.9545)" id="94480">
<g style="">
		<g transform="matrix(0.1537 -0.1537 0.1395 0.1394 -0.0007 -0.0004)" id="580889">
<path style="stroke: rgb(47,53,64); stroke-width: 2; stroke-dasharray: none; stroke-linecap: butt; stroke-dashoffset: 0; stroke-linejoin: miter; stroke-miterlimit: 4; is-custom-font: none; font-file-url: none; fill: none; fill-rule: nonzero; opacity: 1;" vector-effect="non-scaling-stroke" transform=" translate(-79, -78.5002)" d="M 154.666 37.5934 H 3.33409 C 1.49273 37.5934 0 39.0767 0 40.9067 C 0.0749556 84.2303 35.4007 119.332 79 119.407 C 122.615 119.369 157.962 84.2455 158 40.9067 C 158 39.0767 156.507 37.5934 154.666 37.5934 Z" stroke-linecap="round"/>
</g>
		<g transform="matrix(0.1247 -0.1247 0.0987 0.0987 -0.1502 -0.1669)" id="120498">
<path style="stroke: none; stroke-width: 0; stroke-dasharray: none; stroke-linecap: butt; stroke-dashoffset: 0; stroke-linejoin: miter; stroke-miterlimit: 4; is-custom-font: none; font-file-url: none; fill: rgb(47,53,64); fill-rule: nonzero; opacity: 1;" vector-effect="non-scaling-stroke" transform=" translate(-79, -78.5002)" d="M 154.666 37.5934 H 3.33409 C 1.49273 37.5934 0 39.0767 0 40.9067 C 0.0749556 84.2303 35.4007 119.332 79 119.407 C 122.615 119.369 157.962 84.2455 158 40.9067 C 158 39.0767 156.507 37.5934 154.666 37.5934 Z" stroke-linecap="round"/>
</g>
</g>
</g>
<g transform="matrix(0.4316 0 0 0.4316 500.69 1014.796)" id="425579">
<g style="">
		<g transform="matrix(1.0512 0 0 1.0512 3.4625 10.9781)" id="717005">
<g style="">
		<g transform="matrix(0.1537 -0.1537 0.1395 0.1394 -0.0007 -0.0004)" id="580889">
<path style="stroke: rgb(47,53,64); stroke-width: 2; stroke-dasharray: none; stroke-linecap: butt; stroke-dashoffset: 0; stroke-linejoin: miter; stroke-miterlimit: 4; is-custom-font: none; font-file-url: none; fill: none; fill-rule: nonzero; opacity: 1;" vector-effect="non-scaling-stroke" transform=" translate(-79, -78.5002)" d="M 154.666 37.5934 H 3.33409 C 1.49273 37.5934 0 39.0767 0 40.9067 C 0.0749556 84.2303 35.4007 119.332 79 119.407 C 122.615 119.369 157.962 84.2455 158 40.9067 C 158 39.0767 156.507 37.5934 154.666 37.5934 Z" stroke-linecap="round"/>
</g>
		<g transform="matrix(0.1247 -0.1247 0.0987 0.0987 -0.1502 -0.1669)" id="120498">
<path style="stroke: none; stroke-width: 0; stroke-dasharray: none; stroke-linecap: butt; stroke-dashoffset: 0; stroke-linejoin: miter; stroke-miterlimit: 4; is-custom-font: none; font-file-url: none; fill: rgb(47,53,64); fill-rule: nonzero; opacity: 1;" vector-effect="non-scaling-stroke" transform=" translate(-79, -78.5002)" d="M 154.666 37.5934 H 3.33409 C 1.49273 37.5934 0 39.0767 0 40.9067 C 0.0749556 84.2303 35.4007 119.332 79 119.407 C 122.615 119.369 157.962 84.2455 158 40.9067 C 158 39.0767 156.507 37.5934 154.666 37.5934 Z" stroke-linecap="round"/>
</g>
</g>
</g>
		<g transform="matrix(-1.0512 0 0 -1.0512 -3.4616 -10.9772)" id="28882">
<g style="">
		<g transform="matrix(0.1537 -0.1537 0.1395 0.1394 -0.0007 -0.0004)" id="580889">
<path style="stroke: rgb(47,53,64); stroke-width: 2; stroke-dasharray: none; stroke-linecap: butt; stroke-dashoffset: 0; stroke-linejoin: miter; stroke-miterlimit: 4; is-custom-font: none; font-file-url: none; fill: none; fill-rule: nonzero; opacity: 1;" vector-effect="non-scaling-stroke" transform=" translate(-79, -78.5002)" d="M 154.666 37.5934 H 3.33409 C 1.49273 37.5934 0 39.0767 0 40.9067 C 0.0749556 84.2303 35.4007 119.332 79 119.407 C 122.615 119.369 157.962 84.2455 158 40.9067 C 158 39.0767 156.507 37.5934 154.666 37.5934 Z" stroke-linecap="round"/>
</g>
		<g transform="matrix(0.1247 -0.1247 0.0987 0.0987 -0.1502 -0.1669)" id="120498">
<path style="stroke: none; stroke-width: 0; stroke-dasharray: none; stroke-linecap: butt; stroke-dashoffset: 0; stroke-linejoin: miter; stroke-miterlimit: 4; is-custom-font: none; font-file-url: none; fill: rgb(47,53,64); fill-rule: nonzero; opacity: 1;" vector-effect="non-scaling-stroke" transform=" translate(-79, -78.5002)" d="M 154.666 37.5934 H 3.33409 C 1.49273 37.5934 0 39.0767 0 40.9067 C 0.0749556 84.2303 35.4007 119.332 79 119.407 C 122.615 119.369 157.962 84.2455 158 40.9067 C 158 39.0767 156.507 37.5934 154.666 37.5934 Z" stroke-linecap="round"/>
</g>
</g>
</g>
</g>
</g>
<g transform="matrix(0.6221 0 0 0.6221 791.9142 1035.6223)" id="25889">
<g style="">
		<g transform="matrix(0.1537 -0.1537 0.1395 0.1394 -0.0007 -0.0004)" id="580889">
<path style="stroke: rgb(47,53,64); stroke-width: 2; stroke-dasharray: none; stroke-linecap: butt; stroke-dashoffset: 0; stroke-linejoin: miter; stroke-miterlimit: 4; is-custom-font: none; font-file-url: none; fill: none; fill-rule: nonzero; opacity: 1;" vector-effect="non-scaling-stroke" transform=" translate(-79, -78.5002)" d="M 154.666 37.5934 H 3.33409 C 1.49273 37.5934 0 39.0767 0 40.9067 C 0.0749556 84.2303 35.4007 119.332 79 119.407 C 122.615 119.369 157.962 84.2455 158 40.9067 C 158 39.0767 156.507 37.5934 154.666 37.5934 Z" stroke-linecap="round"/>
</g>
		<g transform="matrix(0.1247 -0.1247 0.0987 0.0987 -0.1502 -0.1669)" id="120498">
<path style="stroke: none; stroke-width: 0; stroke-dasharray: none; stroke-linecap: butt; stroke-dashoffset: 0; stroke-linejoin: miter; stroke-miterlimit: 4; is-custom-font: none; font-file-url: none; fill: rgb(47,53,64); fill-rule: nonzero; opacity: 1;" vector-effect="non-scaling-stroke" transform=" translate(-79, -78.5002)" d="M 154.666 37.5934 H 3.33409 C 1.49273 37.5934 0 39.0767 0 40.9067 C 0.0749556 84.2303 35.4007 119.332 79 119.407 C 122.615 119.369 157.962 84.2455 158 40.9067 C 158 39.0767 156.507 37.5934 154.666 37.5934 Z" stroke-linecap="round"/>
</g>
</g>
</g>
<g transform="matrix(-0.6221 0 0 -0.6221 674.4745 1079.7106)" id="63660">
<g style="">
		<g transform="matrix(0.1537 -0.1537 0.1395 0.1394 -0.0007 -0.0004)" id="580889">
<path style="stroke: rgb(47,53,64); stroke-width: 2; stroke-dasharray: none; stroke-linecap: butt; stroke-dashoffset: 0; stroke-linejoin: miter; stroke-miterlimit: 4; is-custom-font: none; font-file-url: none; fill: none; fill-rule: nonzero; opacity: 1;" vector-effect="non-scaling-stroke" transform=" translate(-79, -78.5002)" d="M 154.666 37.5934 H 3.33409 C 1.49273 37.5934 0 39.0767 0 40.9067 C 0.0749556 84.2303 35.4007 119.332 79 119.407 C 122.615 119.369 157.962 84.2455 158 40.9067 C 158 39.0767 156.507 37.5934 154.666 37.5934 Z" stroke-linecap="round"/>
</g>
		<g transform="matrix(0.1247 -0.1247 0.0987 0.0987 -0.1502 -0.1669)" id="120498">
<path style="stroke: none; stroke-width: 0; stroke-dasharray: none; stroke-linecap: butt; stroke-dashoffset: 0; stroke-linejoin: miter; stroke-miterlimit: 4; is-custom-font: none; font-file-url: none; fill: rgb(47,53,64); fill-rule: nonzero; opacity: 1;" vector-effect="non-scaling-stroke" transform=" translate(-79, -78.5002)" d="M 154.666 37.5934 H 3.33409 C 1.49273 37.5934 0 39.0767 0 40.9067 C 0.0749556 84.2303 35.4007 119.332 79 119.407 C 122.615 119.369 157.962 84.2455 158 40.9067 C 158 39.0767 156.507 37.5934 154.666 37.5934 Z" stroke-linecap="round"/>
</g>
</g>
</g>
<g transform="matrix(0.6221 0 0 0.6221 971.773 1107.9769)" id="13935">
<g style="">
		<g transform="matrix(0.1537 -0.1537 0.1395 0.1394 -0.0007 -0.0004)" id="580889">
<path style="stroke: rgb(47,53,64); stroke-width: 2; stroke-dasharray: none; stroke-linecap: butt; stroke-dashoffset: 0; stroke-linejoin: miter; stroke-miterlimit: 4; is-custom-font: none; font-file-url: none; fill: none; fill-rule: nonzero; opacity: 1;" vector-effect="non-scaling-stroke" transform=" translate(-79, -78.5002)" d="M 154.666 37.5934 H 3.33409 C 1.49273 37.5934 0 39.0767 0 40.9067 C 0.0749556 84.2303 35.4007 119.332 79 119.407 C 122.615 119.369 157.962 84.2455 158 40.9067 C 158 39.0767 156.507 37.5934 154.666 37.5934 Z" stroke-linecap="round"/>
</g>
		<g transform="matrix(0.1247 -0.1247 0.0987 0.0987 -0.1502 -0.1669)" id="120498">
<path style="stroke: none; stroke-width: 0; stroke-dasharray: none; stroke-linecap: butt; stroke-dashoffset: 0; stroke-linejoin: miter; stroke-miterlimit: 4; is-custom-font: none; font-file-url: none; fill: rgb(47,53,64); fill-rule: nonzero; opacity: 1;" vector-effect="non-scaling-stroke" transform=" translate(-79, -78.5002)" d="M 154.666 37.5934 H 3.33409 C 1.49273 37.5934 0 39.0767 0 40.9067 C 0.0749556 84.2303 35.4007 119.332 79 119.407 C 122.615 119.369 157.962 84.2455 158 40.9067 C 158 39.0767 156.507 37.5934 154.666 37.5934 Z" stroke-linecap="round"/>
</g>
</g>
</g>
<g transform="matrix(-0.6221 0 0 -0.6221 854.3333 1152.0653)" id="919892">
<g style="">
		<g transform="matrix(0.1537 -0.1537 0.1395 0.1394 -0.0007 -0.0004)" id="580889">
<path style="stroke: rgb(47,53,64); stroke-width: 2; stroke-dasharray: none; stroke-linecap: butt; stroke-dashoffset: 0; stroke-linejoin: miter; stroke-miterlimit: 4; is-custom-font: none; font-file-url: none; fill: none; fill-rule: nonzero; opacity: 1;" vector-effect="non-scaling-stroke" transform=" translate(-79, -78.5002)" d="M 154.666 37.5934 H 3.33409 C 1.49273 37.5934 0 39.0767 0 40.9067 C 0.0749556 84.2303 35.4007 119.332 79 119.407 C 122.615 119.369 157.962 84.2455 158 40.9067 C 158 39.0767 156.507 37.5934 154.666 37.5934 Z" stroke-linecap="round"/>
</g>
		<g transform="matrix(0.1247 -0.1247 0.0987 0.0987 -0.1502 -0.1669)" id="120498">
<path style="stroke: none; stroke-width: 0; stroke-dasharray: none; stroke-linecap: butt; stroke-dashoffset: 0; stroke-linejoin: miter; stroke-miterlimit: 4; is-custom-font: none; font-file-url: none; fill: rgb(47,53,64); fill-rule: nonzero; opacity: 1;" vector-effect="non-scaling-stroke" transform=" translate(-79, -78.5002)" d="M 154.666 37.5934 H 3.33409 C 1.49273 37.5934 0 39.0767 0 40.9067 C 0.0749556 84.2303 35.4007 119.332 79 119.407 C 122.615 119.369 157.962 84.2455 158 40.9067 C 158 39.0767 156.507 37.5934 154.666 37.5934 Z" stroke-linecap="round"/>
</g>
</g>
</g>
<g transform="matrix(0.4316 0 0 0.4316 890.4998 1056.9067)" id="745867">
<g style="">
		<g transform="matrix(1.0512 0 0 1.0512 3.4625 10.9781)" id="717005">
<g style="">
		<g transform="matrix(0.1537 -0.1537 0.1395 0.1394 -0.0007 -0.0004)" id="580889">
<path style="stroke: rgb(47,53,64); stroke-width: 2; stroke-dasharray: none; stroke-linecap: butt; stroke-dashoffset: 0; stroke-linejoin: miter; stroke-miterlimit: 4; is-custom-font: none; font-file-url: none; fill: none; fill-rule: nonzero; opacity: 1;" vector-effect="non-scaling-stroke" transform=" translate(-79, -78.5002)" d="M 154.666 37.5934 H 3.33409 C 1.49273 37.5934 0 39.0767 0 40.9067 C 0.0749556 84.2303 35.4007 119.332 79 119.407 C 122.615 119.369 157.962 84.2455 158 40.9067 C 158 39.0767 156.507 37.5934 154.666 37.5934 Z" stroke-linecap="round"/>
</g>
		<g transform="matrix(0.1247 -0.1247 0.0987 0.0987 -0.1502 -0.1669)" id="120498">
<path style="stroke: none; stroke-width: 0; stroke-dasharray: none; stroke-linecap: butt; stroke-dashoffset: 0; stroke-linejoin: miter; stroke-miterlimit: 4; is-custom-font: none; font-file-url: none; fill: rgb(47,53,64); fill-rule: nonzero; opacity: 1;" vector-effect="non-scaling-stroke" transform=" translate(-79, -78.5002)" d="M 154.666 37.5934 H 3.33409 C 1.49273 37.5934 0 39.0767 0 40.9067 C 0.0749556 84.2303 35.4007 119.332 79 119.407 C 122.615 119.369 157.962 84.2455 158 40.9067 C 158 39.0767 156.507 37.5934 154.666 37.5934 Z" stroke-linecap="round"/>
</g>
</g>
</g>
		<g transform="matrix(-1.0512 0 0 -1.0512 -3.4616 -10.9772)" id="28882">
<g style="">
		<g transform="matrix(0.1537 -0.1537 0.1395 0.1394 -0.0007 -0.0004)" id="580889">
<path style="stroke: rgb(47,53,64); stroke-width: 2; stroke-dasharray: none; stroke-linecap: butt; stroke-dashoffset: 0; stroke-linejoin: miter; stroke-miterlimit: 4; is-custom-font: none; font-file-url: none; fill: none; fill-rule: nonzero; opacity: 1;" vector-effect="non-scaling-stroke" transform=" translate(-79, -78.5002)" d="M 154.666 37.5934 H 3.33409 C 1.49273 37.5934 0 39.0767 0 40.9067 C 0.0749556 84.2303 35.4007 119.332 79 119.407 C 122.615 119.369 157.962 84.2455 158 40.9067 C 158 39.0767 156.507 37.5934 154.666 37.5934 Z" stroke-linecap="round"/>
</g>
		<g transform="matrix(0.1247 -0.1247 0.0987 0.0987 -0.1502 -0.1669)" id="120498">
<path style="stroke: none; stroke-width: 0; stroke-dasharray: none; stroke-linecap: butt; stroke-dashoffset: 0; stroke-linejoin: miter; stroke-miterlimit: 4; is-custom-font: none; font-file-url: none; fill: rgb(47,53,64); fill-rule: nonzero; opacity: 1;" vector-effect="non-scaling-stroke" transform=" translate(-79, -78.5002)" d="M 154.666 37.5934 H 3.33409 C 1.49273 37.5934 0 39.0767 0 40.9067 C 0.0749556 84.2303 35.4007 119.332 79 119.407 C 122.615 119.369 157.962 84.2455 158 40.9067 C 158 39.0767 156.507 37.5934 154.666 37.5934 Z" stroke-linecap="round"/>
</g>
</g>
</g>
</g>
</g>
<g transform="matrix(0.5573 0 0 0.5573 209.3528 76.3355)" id="165899">
<g style="">
		<g transform="matrix(0.1537 -0.1537 0.1395 0.1394 -0.0007 -0.0004)" id="580889">
<path style="stroke: rgb(47,53,64); stroke-width: 2; stroke-dasharray: none; stroke-linecap: butt; stroke-dashoffset: 0; stroke-linejoin: miter; stroke-miterlimit: 4; is-custom-font: none; font-file-url: none; fill: none; fill-rule: nonzero; opacity: 1;" vector-effect="non-scaling-stroke" transform=" translate(-79, -78.5002)" d="M 154.666 37.5934 H 3.33409 C 1.49273 37.5934 0 39.0767 0 40.9067 C 0.0749556 84.2303 35.4007 119.332 79 119.407 C 122.615 119.369 157.962 84.2455 158 40.9067 C 158 39.0767 156.507 37.5934 154.666 37.5934 Z" stroke-linecap="round"/>
</g>
		<g transform="matrix(0.1247 -0.1247 0.0987 0.0987 -0.1502 -0.1669)" id="120498">
<path style="stroke: none; stroke-width: 0; stroke-dasharray: none; stroke-linecap: butt; stroke-dashoffset: 0; stroke-linejoin: miter; stroke-miterlimit: 4; is-custom-font: none; font-file-url: none; fill: rgb(47,53,64); fill-rule: nonzero; opacity: 1;" vector-effect="non-scaling-stroke" transform=" translate(-79, -78.5002)" d="M 154.666 37.5934 H 3.33409 C 1.49273 37.5934 0 39.0767 0 40.9067 C 0.0749556 84.2303 35.4007 119.332 79 119.407 C 122.615 119.369 157.962 84.2455 158 40.9067 C 158 39.0767 156.507 37.5934 154.666 37.5934 Z" stroke-linecap="round"/>
</g>
</g>
</g>
<g transform="matrix(-0.6221 0 0 -0.6221 43.9148 131.8111)" id="741664">
<g style="">
		<g transform="matrix(0.1537 -0.1537 0.1395 0.1394 -0.0007 -0.0004)" id="580889">
<path style="stroke: rgb(47,53,64); stroke-width: 2; stroke-dasharray: none; stroke-linecap: butt; stroke-dashoffset: 0; stroke-linejoin: miter; stroke-miterlimit: 4; is-custom-font: none; font-file-url: none; fill: none; fill-rule: nonzero; opacity: 1;" vector-effect="non-scaling-stroke" transform=" translate(-79, -78.5002)" d="M 154.666 37.5934 H 3.33409 C 1.49273 37.5934 0 39.0767 0 40.9067 C 0.0749556 84.2303 35.4007 119.332 79 119.407 C 122.615 119.369 157.962 84.2455 158 40.9067 C 158 39.0767 156.507 37.5934 154.666 37.5934 Z" stroke-linecap="round"/>
</g>
		<g transform="matrix(0.1247 -0.1247 0.0987 0.0987 -0.1502 -0.1669)" id="120498">
<path style="stroke: none; stroke-width: 0; stroke-dasharray: none; stroke-linecap: butt; stroke-dashoffset: 0; stroke-linejoin: miter; stroke-miterlimit: 4; is-custom-font: none; font-file-url: none; fill: rgb(47,53,64); fill-rule: nonzero; opacity: 1;" vector-effect="non-scaling-stroke" transform=" translate(-79, -78.5002)" d="M 154.666 37.5934 H 3.33409 C 1.49273 37.5934 0 39.0767 0 40.9067 C 0.0749556 84.2303 35.4007 119.332 79 119.407 C 122.615 119.369 157.962 84.2455 158 40.9067 C 158 39.0767 156.507 37.5934 154.666 37.5934 Z" stroke-linecap="round"/>
</g>
</g>
</g>
<g transform="matrix(0.4316 0 0 0.4316 90.2203 13.4779)" id="342707">
<g style="">
		<g transform="matrix(1.0512 0 0 1.0512 3.4625 10.9781)" id="717005">
<g style="">
		<g transform="matrix(0.1537 -0.1537 0.1395 0.1394 -0.0007 -0.0004)" id="580889">
<path style="stroke: rgb(47,53,64); stroke-width: 2; stroke-dasharray: none; stroke-linecap: butt; stroke-dashoffset: 0; stroke-linejoin: miter; stroke-miterlimit: 4; is-custom-font: none; font-file-url: none; fill: none; fill-rule: nonzero; opacity: 1;" vector-effect="non-scaling-stroke" transform=" translate(-79, -78.5002)" d="M 154.666 37.5934 H 3.33409 C 1.49273 37.5934 0 39.0767 0 40.9067 C 0.0749556 84.2303 35.4007 119.332 79 119.407 C 122.615 119.369 157.962 84.2455 158 40.9067 C 158 39.0767 156.507 37.5934 154.666 37.5934 Z" stroke-linecap="round"/>
</g>
		<g transform="matrix(0.1247 -0.1247 0.0987 0.0987 -0.1502 -0.1669)" id="120498">
<path style="stroke: none; stroke-width: 0; stroke-dasharray: none; stroke-linecap: butt; stroke-dashoffset: 0; stroke-linejoin: miter; stroke-miterlimit: 4; is-custom-font: none; font-file-url: none; fill: rgb(47,53,64); fill-rule: nonzero; opacity: 1;" vector-effect="non-scaling-stroke" transform=" translate(-79, -78.5002)" d="M 154.666 37.5934 H 3.33409 C 1.49273 37.5934 0 39.0767 0 40.9067 C 0.0749556 84.2303 35.4007 119.332 79 119.407 C 122.615 119.369 157.962 84.2455 158 40.9067 C 158 39.0767 156.507 37.5934 154.666 37.5934 Z" stroke-linecap="round"/>
</g>
</g>
</g>
		<g transform="matrix(-1.0512 0 0 -1.0512 -3.4616 -10.9772)" id="28882">
<g style="">
		<g transform="matrix(0.1537 -0.1537 0.1395 0.1394 -0.0007 -0.0004)" id="580889">
<path style="stroke: rgb(47,53,64); stroke-width: 2; stroke-dasharray: none; stroke-linecap: butt; stroke-dashoffset: 0; stroke-linejoin: miter; stroke-miterlimit: 4; is-custom-font: none; font-file-url: none; fill: none; fill-rule: nonzero; opacity: 1;" vector-effect="non-scaling-stroke" transform=" translate(-79, -78.5002)" d="M 154.666 37.5934 H 3.33409 C 1.49273 37.5934 0 39.0767 0 40.9067 C 0.0749556 84.2303 35.4007 119.332 79 119.407 C 122.615 119.369 157.962 84.2455 158 40.9067 C 158 39.0767 156.507 37.5934 154.666 37.5934 Z" stroke-linecap="round"/>
</g>
		<g transform="matrix(0.1247 -0.1247 0.0987 0.0987 -0.1502 -0.1669)" id="120498">
<path style="stroke: none; stroke-width: 0; stroke-dasharray: none; stroke-linecap: butt; stroke-dashoffset: 0; stroke-linejoin: miter; stroke-miterlimit: 4; is-custom-font: none; font-file-url: none; fill: rgb(47,53,64); fill-rule: nonzero; opacity: 1;" vector-effect="non-scaling-stroke" transform=" translate(-79, -78.5002)" d="M 154.666 37.5934 H 3.33409 C 1.49273 37.5934 0 39.0767 0 40.9067 C 0.0749556 84.2303 35.4007 119.332 79 119.407 C 122.615 119.369 157.962 84.2455 158 40.9067 C 158 39.0767 156.507 37.5934 154.666 37.5934 Z" stroke-linecap="round"/>
</g>
</g>
</g>
</g>
</g>
<g transform="matrix(0.4316 0 0 0.4316 167.2456 219.1425)" id="337095">
<g style="">
		<g transform="matrix(1.0512 0 0 1.0512 3.4625 10.9781)" id="717005">
<g style="">
		<g transform="matrix(0.1537 -0.1537 0.1395 0.1394 -0.0007 -0.0004)" id="580889">
<path style="stroke: rgb(47,53,64); stroke-width: 2; stroke-dasharray: none; stroke-linecap: butt; stroke-dashoffset: 0; stroke-linejoin: miter; stroke-miterlimit: 4; is-custom-font: none; font-file-url: none; fill: none; fill-rule: nonzero; opacity: 1;" vector-effect="non-scaling-stroke" transform=" translate(-79, -78.5002)" d="M 154.666 37.5934 H 3.33409 C 1.49273 37.5934 0 39.0767 0 40.9067 C 0.0749556 84.2303 35.4007 119.332 79 119.407 C 122.615 119.369 157.962 84.2455 158 40.9067 C 158 39.0767 156.507 37.5934 154.666 37.5934 Z" stroke-linecap="round"/>
</g>
		<g transform="matrix(0.1247 -0.1247 0.0987 0.0987 -0.1502 -0.1669)" id="120498">
<path style="stroke: none; stroke-width: 0; stroke-dasharray: none; stroke-linecap: butt; stroke-dashoffset: 0; stroke-linejoin: miter; stroke-miterlimit: 4; is-custom-font: none; font-file-url: none; fill: rgb(47,53,64); fill-rule: nonzero; opacity: 1;" vector-effect="non-scaling-stroke" transform=" translate(-79, -78.5002)" d="M 154.666 37.5934 H 3.33409 C 1.49273 37.5934 0 39.0767 0 40.9067 C 0.0749556 84.2303 35.4007 119.332 79 119.407 C 122.615 119.369 157.962 84.2455 158 40.9067 C 158 39.0767 156.507 37.5934 154.666 37.5934 Z" stroke-linecap="round"/>
</g>
</g>
</g>
		<g transform="matrix(-1.0512 0 0 -1.0512 -3.4616 -10.9772)" id="28882">
<g style="">
		<g transform="matrix(0.1537 -0.1537 0.1395 0.1394 -0.0007 -0.0004)" id="580889">
<path style="stroke: rgb(47,53,64); stroke-width: 2; stroke-dasharray: none; stroke-linecap: butt; stroke-dashoffset: 0; stroke-linejoin: miter; stroke-miterlimit: 4; is-custom-font: none; font-file-url: none; fill: none; fill-rule: nonzero; opacity: 1;" vector-effect="non-scaling-stroke" transform=" translate(-79, -78.5002)" d="M 154.666 37.5934 H 3.33409 C 1.49273 37.5934 0 39.0767 0 40.9067 C 0.0749556 84.2303 35.4007 119.332 79 119.407 C 122.615 119.369 157.962 84.2455 158 40.9067 C 158 39.0767 156.507 37.5934 154.666 37.5934 Z" stroke-linecap="round"/>
</g>
		<g transform="matrix(0.1247 -0.1247 0.0987 0.0987 -0.1502 -0.1669)" id="120498">
<path style="stroke: none; stroke-width: 0; stroke-dasharray: none; stroke-linecap: butt; stroke-dashoffset: 0; stroke-linejoin: miter; stroke-miterlimit: 4; is-custom-font: none; font-file-url: none; fill: rgb(47,53,64); fill-rule: nonzero; opacity: 1;" vector-effect="non-scaling-stroke" transform=" translate(-79, -78.5002)" d="M 154.666 37.5934 H 3.33409 C 1.49273 37.5934 0 39.0767 0 40.9067 C 0.0749556 84.2303 35.4007 119.332 79 119.407 C 122.615 119.369 157.962 84.2455 158 40.9067 C 158 39.0767 156.507 37.5934 154.666 37.5934 Z" stroke-linecap="round"/>
</g>
</g>
</g>
</g>
</g>
<g transform="matrix(0.5573 0 0 0.5573 475.5856 120.9588)" id="42652">
<g style="">
		<g transform="matrix(0.1537 -0.1537 0.1395 0.1394 -0.0007 -0.0004)" id="580889">
<path style="stroke: rgb(47,53,64); stroke-width: 2; stroke-dasharray: none; stroke-linecap: butt; stroke-dashoffset: 0; stroke-linejoin: miter; stroke-miterlimit: 4; is-custom-font: none; font-file-url: none; fill: none; fill-rule: nonzero; opacity: 1;" vector-effect="non-scaling-stroke" transform=" translate(-79, -78.5002)" d="M 154.666 37.5934 H 3.33409 C 1.49273 37.5934 0 39.0767 0 40.9067 C 0.0749556 84.2303 35.4007 119.332 79 119.407 C 122.615 119.369 157.962 84.2455 158 40.9067 C 158 39.0767 156.507 37.5934 154.666 37.5934 Z" stroke-linecap="round"/>
</g>
		<g transform="matrix(0.1247 -0.1247 0.0987 0.0987 -0.1502 -0.1669)" id="120498">
<path style="stroke: none; stroke-width: 0; stroke-dasharray: none; stroke-linecap: butt; stroke-dashoffset: 0; stroke-linejoin: miter; stroke-miterlimit: 4; is-custom-font: none; font-file-url: none; fill: rgb(47,53,64); fill-rule: nonzero; opacity: 1;" vector-effect="non-scaling-stroke" transform=" translate(-79, -78.5002)" d="M 154.666 37.5934 H 3.33409 C 1.49273 37.5934 0 39.0767 0 40.9067 C 0.0749556 84.2303 35.4007 119.332 79 119.407 C 122.615 119.369 157.962 84.2455 158 40.9067 C 158 39.0767 156.507 37.5934 154.666 37.5934 Z" stroke-linecap="round"/>
</g>
</g>
</g>
<g transform="matrix(-0.6221 0 0 -0.6221 310.1477 176.4344)" id="889881">
<g style="">
		<g transform="matrix(0.1537 -0.1537 0.1395 0.1394 -0.0007 -0.0004)" id="580889">
<path style="stroke: rgb(47,53,64); stroke-width: 2; stroke-dasharray: none; stroke-linecap: butt; stroke-dashoffset: 0; stroke-linejoin: miter; stroke-miterlimit: 4; is-custom-font: none; font-file-url: none; fill: none; fill-rule: nonzero; opacity: 1;" vector-effect="non-scaling-stroke" transform=" translate(-79, -78.5002)" d="M 154.666 37.5934 H 3.33409 C 1.49273 37.5934 0 39.0767 0 40.9067 C 0.0749556 84.2303 35.4007 119.332 79 119.407 C 122.615 119.369 157.962 84.2455 158 40.9067 C 158 39.0767 156.507 37.5934 154.666 37.5934 Z" stroke-linecap="round"/>
</g>
		<g transform="matrix(0.1247 -0.1247 0.0987 0.0987 -0.1502 -0.1669)" id="120498">
<path style="stroke: none; stroke-width: 0; stroke-dasharray: none; stroke-linecap: butt; stroke-dashoffset: 0; stroke-linejoin: miter; stroke-miterlimit: 4; is-custom-font: none; font-file-url: none; fill: rgb(47,53,64); fill-rule: nonzero; opacity: 1;" vector-effect="non-scaling-stroke" transform=" translate(-79, -78.5002)" d="M 154.666 37.5934 H 3.33409 C 1.49273 37.5934 0 39.0767 0 40.9067 C 0.0749556 84.2303 35.4007 119.332 79 119.407 C 122.615 119.369 157.962 84.2455 158 40.9067 C 158 39.0767 156.507 37.5934 154.666 37.5934 Z" stroke-linecap="round"/>
</g>
</g>
</g>
<g transform="matrix(0.4316 0 0 0.4316 356.4532 58.1012)" id="571271">
<g style="">
		<g transform="matrix(1.0512 0 0 1.0512 3.4625 10.9781)" id="717005">
<g style="">
		<g transform="matrix(0.1537 -0.1537 0.1395 0.1394 -0.0007 -0.0004)" id="580889">
<path style="stroke: rgb(47,53,64); stroke-width: 2; stroke-dasharray: none; stroke-linecap: butt; stroke-dashoffset: 0; stroke-linejoin: miter; stroke-miterlimit: 4; is-custom-font: none; font-file-url: none; fill: none; fill-rule: nonzero; opacity: 1;" vector-effect="non-scaling-stroke" transform=" translate(-79, -78.5002)" d="M 154.666 37.5934 H 3.33409 C 1.49273 37.5934 0 39.0767 0 40.9067 C 0.0749556 84.2303 35.4007 119.332 79 119.407 C 122.615 119.369 157.962 84.2455 158 40.9067 C 158 39.0767 156.507 37.5934 154.666 37.5934 Z" stroke-linecap="round"/>
</g>
		<g transform="matrix(0.1247 -0.1247 0.0987 0.0987 -0.1502 -0.1669)" id="120498">
<path style="stroke: none; stroke-width: 0; stroke-dasharray: none; stroke-linecap: butt; stroke-dashoffset: 0; stroke-linejoin: miter; stroke-miterlimit: 4; is-custom-font: none; font-file-url: none; fill: rgb(47,53,64); fill-rule: nonzero; opacity: 1;" vector-effect="non-scaling-stroke" transform=" translate(-79, -78.5002)" d="M 154.666 37.5934 H 3.33409 C 1.49273 37.5934 0 39.0767 0 40.9067 C 0.0749556 84.2303 35.4007 119.332 79 119.407 C 122.615 119.369 157.962 84.2455 158 40.9067 C 158 39.0767 156.507 37.5934 154.666 37.5934 Z" stroke-linecap="round"/>
</g>
</g>
</g>
		<g transform="matrix(-1.0512 0 0 -1.0512 -3.4616 -10.9772)" id="28882">
<g style="">
		<g transform="matrix(0.1537 -0.1537 0.1395 0.1394 -0.0007 -0.0004)" id="580889">
<path style="stroke: rgb(47,53,64); stroke-width: 2; stroke-dasharray: none; stroke-linecap: butt; stroke-dashoffset: 0; stroke-linejoin: miter; stroke-miterlimit: 4; is-custom-font: none; font-file-url: none; fill: none; fill-rule: nonzero; opacity: 1;" vector-effect="non-scaling-stroke" transform=" translate(-79, -78.5002)" d="M 154.666 37.5934 H 3.33409 C 1.49273 37.5934 0 39.0767 0 40.9067 C 0.0749556 84.2303 35.4007 119.332 79 119.407 C 122.615 119.369 157.962 84.2455 158 40.9067 C 158 39.0767 156.507 37.5934 154.666 37.5934 Z" stroke-linecap="round"/>
</g>
		<g transform="matrix(0.1247 -0.1247 0.0987 0.0987 -0.1502 -0.1669)" id="120498">
<path style="stroke: none; stroke-width: 0; stroke-dasharray: none; stroke-linecap: butt; stroke-dashoffset: 0; stroke-linejoin: miter; stroke-miterlimit: 4; is-custom-font: none; font-file-url: none; fill: rgb(47,53,64); fill-rule: nonzero; opacity: 1;" vector-effect="non-scaling-stroke" transform=" translate(-79, -78.5002)" d="M 154.666 37.5934 H 3.33409 C 1.49273 37.5934 0 39.0767 0 40.9067 C 0.0749556 84.2303 35.4007 119.332 79 119.407 C 122.615 119.369 157.962 84.2455 158 40.9067 C 158 39.0767 156.507 37.5934 154.666 37.5934 Z" stroke-linecap="round"/>
</g>
</g>
</g>
</g>
</g>
<g transform="matrix(0.4316 0 0 0.4316 433.4784 263.7657)" id="594784">
<g style="">
		<g transform="matrix(1.0512 0 0 1.0512 3.4625 10.9781)" id="717005">
<g style="">
		<g transform="matrix(0.1537 -0.1537 0.1395 0.1394 -0.0007 -0.0004)" id="580889">
<path style="stroke: rgb(47,53,64); stroke-width: 2; stroke-dasharray: none; stroke-linecap: butt; stroke-dashoffset: 0; stroke-linejoin: miter; stroke-miterlimit: 4; is-custom-font: none; font-file-url: none; fill: none; fill-rule: nonzero; opacity: 1;" vector-effect="non-scaling-stroke" transform=" translate(-79, -78.5002)" d="M 154.666 37.5934 H 3.33409 C 1.49273 37.5934 0 39.0767 0 40.9067 C 0.0749556 84.2303 35.4007 119.332 79 119.407 C 122.615 119.369 157.962 84.2455 158 40.9067 C 158 39.0767 156.507 37.5934 154.666 37.5934 Z" stroke-linecap="round"/>
</g>
		<g transform="matrix(0.1247 -0.1247 0.0987 0.0987 -0.1502 -0.1669)" id="120498">
<path style="stroke: none; stroke-width: 0; stroke-dasharray: none; stroke-linecap: butt; stroke-dashoffset: 0; stroke-linejoin: miter; stroke-miterlimit: 4; is-custom-font: none; font-file-url: none; fill: rgb(47,53,64); fill-rule: nonzero; opacity: 1;" vector-effect="non-scaling-stroke" transform=" translate(-79, -78.5002)" d="M 154.666 37.5934 H 3.33409 C 1.49273 37.5934 0 39.0767 0 40.9067 C 0.0749556 84.2303 35.4007 119.332 79 119.407 C 122.615 119.369 157.962 84.2455 158 40.9067 C 158 39.0767 156.507 37.5934 154.666 37.5934 Z" stroke-linecap="round"/>
</g>
</g>
</g>
		<g transform="matrix(-1.0512 0 0 -1.0512 -3.4616 -10.9772)" id="28882">
<g style="">
		<g transform="matrix(0.1537 -0.1537 0.1395 0.1394 -0.0007 -0.0004)" id="580889">
<path style="stroke: rgb(47,53,64); stroke-width: 2; stroke-dasharray: none; stroke-linecap: butt; stroke-dashoffset: 0; stroke-linejoin: miter; stroke-miterlimit: 4; is-custom-font: none; font-file-url: none; fill: none; fill-rule: nonzero; opacity: 1;" vector-effect="non-scaling-stroke" transform=" translate(-79, -78.5002)" d="M 154.666 37.5934 H 3.33409 C 1.49273 37.5934 0 39.0767 0 40.9067 C 0.0749556 84.2303 35.4007 119.332 79 119.407 C 122.615 119.369 157.962 84.2455 158 40.9067 C 158 39.0767 156.507 37.5934 154.666 37.5934 Z" stroke-linecap="round"/>
</g>
		<g transform="matrix(0.1247 -0.1247 0.0987 0.0987 -0.1502 -0.1669)" id="120498">
<path style="stroke: none; stroke-width: 0; stroke-dasharray: none; stroke-linecap: butt; stroke-dashoffset: 0; stroke-linejoin: miter; stroke-miterlimit: 4; is-custom-font: none; font-file-url: none; fill: rgb(47,53,64); fill-rule: nonzero; opacity: 1;" vector-effect="non-scaling-stroke" transform=" translate(-79, -78.5002)" d="M 154.666 37.5934 H 3.33409 C 1.49273 37.5934 0 39.0767 0 40.9067 C 0.0749556 84.2303 35.4007 119.332 79 119.407 C 122.615 119.369 157.962 84.2455 158 40.9067 C 158 39.0767 156.507 37.5934 154.666 37.5934 Z" stroke-linecap="round"/>
</g>
</g>
</g>
</g>
</g>
<g transform="matrix(0.5573 0 0 0.5573 767.8895 196.1624)" id="584210">
<g style="">
		<g transform="matrix(0.1537 -0.1537 0.1395 0.1394 -0.0007 -0.0004)" id="580889">
<path style="stroke: rgb(47,53,64); stroke-width: 2; stroke-dasharray: none; stroke-linecap: butt; stroke-dashoffset: 0; stroke-linejoin: miter; stroke-miterlimit: 4; is-custom-font: none; font-file-url: none; fill: none; fill-rule: nonzero; opacity: 1;" vector-effect="non-scaling-stroke" transform=" translate(-79, -78.5002)" d="M 154.666 37.5934 H 3.33409 C 1.49273 37.5934 0 39.0767 0 40.9067 C 0.0749556 84.2303 35.4007 119.332 79 119.407 C 122.615 119.369 157.962 84.2455 158 40.9067 C 158 39.0767 156.507 37.5934 154.666 37.5934 Z" stroke-linecap="round"/>
</g>
		<g transform="matrix(0.1247 -0.1247 0.0987 0.0987 -0.1502 -0.1669)" id="120498">
<path style="stroke: none; stroke-width: 0; stroke-dasharray: none; stroke-linecap: butt; stroke-dashoffset: 0; stroke-linejoin: miter; stroke-miterlimit: 4; is-custom-font: none; font-file-url: none; fill: rgb(47,53,64); fill-rule: nonzero; opacity: 1;" vector-effect="non-scaling-stroke" transform=" translate(-79, -78.5002)" d="M 154.666 37.5934 H 3.33409 C 1.49273 37.5934 0 39.0767 0 40.9067 C 0.0749556 84.2303 35.4007 119.332 79 119.407 C 122.615 119.369 157.962 84.2455 158 40.9067 C 158 39.0767 156.507 37.5934 154.666 37.5934 Z" stroke-linecap="round"/>
</g>
</g>
</g>
<g transform="matrix(-0.6221 0 0 -0.6221 602.4516 251.638)" id="592996">
<g style="">
		<g transform="matrix(0.1537 -0.1537 0.1395 0.1394 -0.0007 -0.0004)" id="580889">
<path style="stroke: rgb(47,53,64); stroke-width: 2; stroke-dasharray: none; stroke-linecap: butt; stroke-dashoffset: 0; stroke-linejoin: miter; stroke-miterlimit: 4; is-custom-font: none; font-file-url: none; fill: none; fill-rule: nonzero; opacity: 1;" vector-effect="non-scaling-stroke" transform=" translate(-79, -78.5002)" d="M 154.666 37.5934 H 3.33409 C 1.49273 37.5934 0 39.0767 0 40.9067 C 0.0749556 84.2303 35.4007 119.332 79 119.407 C 122.615 119.369 157.962 84.2455 158 40.9067 C 158 39.0767 156.507 37.5934 154.666 37.5934 Z" stroke-linecap="round"/>
</g>
		<g transform="matrix(0.1247 -0.1247 0.0987 0.0987 -0.1502 -0.1669)" id="120498">
<path style="stroke: none; stroke-width: 0; stroke-dasharray: none; stroke-linecap: butt; stroke-dashoffset: 0; stroke-linejoin: miter; stroke-miterlimit: 4; is-custom-font: none; font-file-url: none; fill: rgb(47,53,64); fill-rule: nonzero; opacity: 1;" vector-effect="non-scaling-stroke" transform=" translate(-79, -78.5002)" d="M 154.666 37.5934 H 3.33409 C 1.49273 37.5934 0 39.0767 0 40.9067 C 0.0749556 84.2303 35.4007 119.332 79 119.407 C 122.615 119.369 157.962 84.2455 158 40.9067 C 158 39.0767 156.507 37.5934 154.666 37.5934 Z" stroke-linecap="round"/>
</g>
</g>
</g>
<g transform="matrix(0.4316 0 0 0.4316 648.7571 133.3048)" id="616902">
<g style="">
		<g transform="matrix(1.0512 0 0 1.0512 3.4625 10.9781)" id="717005">
<g style="">
		<g transform="matrix(0.1537 -0.1537 0.1395 0.1394 -0.0007 -0.0004)" id="580889">
<path style="stroke: rgb(47,53,64); stroke-width: 2; stroke-dasharray: none; stroke-linecap: butt; stroke-dashoffset: 0; stroke-linejoin: miter; stroke-miterlimit: 4; is-custom-font: none; font-file-url: none; fill: none; fill-rule: nonzero; opacity: 1;" vector-effect="non-scaling-stroke" transform=" translate(-79, -78.5002)" d="M 154.666 37.5934 H 3.33409 C 1.49273 37.5934 0 39.0767 0 40.9067 C 0.0749556 84.2303 35.4007 119.332 79 119.407 C 122.615 119.369 157.962 84.2455 158 40.9067 C 158 39.0767 156.507 37.5934 154.666 37.5934 Z" stroke-linecap="round"/>
</g>
		<g transform="matrix(0.1247 -0.1247 0.0987 0.0987 -0.1502 -0.1669)" id="120498">
<path style="stroke: none; stroke-width: 0; stroke-dasharray: none; stroke-linecap: butt; stroke-dashoffset: 0; stroke-linejoin: miter; stroke-miterlimit: 4; is-custom-font: none; font-file-url: none; fill: rgb(47,53,64); fill-rule: nonzero; opacity: 1;" vector-effect="non-scaling-stroke" transform=" translate(-79, -78.5002)" d="M 154.666 37.5934 H 3.33409 C 1.49273 37.5934 0 39.0767 0 40.9067 C 0.0749556 84.2303 35.4007 119.332 79 119.407 C 122.615 119.369 157.962 84.2455 158 40.9067 C 158 39.0767 156.507 37.5934 154.666 37.5934 Z" stroke-linecap="round"/>
</g>
</g>
</g>
		<g transform="matrix(-1.0512 0 0 -1.0512 -3.4616 -10.9772)" id="28882">
<g style="">
		<g transform="matrix(0.1537 -0.1537 0.1395 0.1394 -0.0007 -0.0004)" id="580889">
<path style="stroke: rgb(47,53,64); stroke-width: 2; stroke-dasharray: none; stroke-linecap: butt; stroke-dashoffset: 0; stroke-linejoin: miter; stroke-miterlimit: 4; is-custom-font: none; font-file-url: none; fill: none; fill-rule: nonzero; opacity: 1;" vector-effect="non-scaling-stroke" transform=" translate(-79, -78.5002)" d="M 154.666 37.5934 H 3.33409 C 1.49273 37.5934 0 39.0767 0 40.9067 C 0.0749556 84.2303 35.4007 119.332 79 119.407 C 122.615 119.369 157.962 84.2455 158 40.9067 C 158 39.0767 156.507 37.5934 154.666 37.5934 Z" stroke-linecap="round"/>
</g>
		<g transform="matrix(0.1247 -0.1247 0.0987 0.0987 -0.1502 -0.1669)" id="120498">
<path style="stroke: none; stroke-width: 0; stroke-dasharray: none; stroke-linecap: butt; stroke-dashoffset: 0; stroke-linejoin: miter; stroke-miterlimit: 4; is-custom-font: none; font-file-url: none; fill: rgb(47,53,64); fill-rule: nonzero; opacity: 1;" vector-effect="non-scaling-stroke" transform=" translate(-79, -78.5002)" d="M 154.666 37.5934 H 3.33409 C 1.49273 37.5934 0 39.0767 0 40.9067 C 0.0749556 84.2303 35.4007 119.332 79 119.407 C 122.615 119.369 157.962 84.2455 158 40.9067 C 158 39.0767 156.507 37.5934 154.666 37.5934 Z" stroke-linecap="round"/>
</g>
</g>
</g>
</g>
</g>
<g transform="matrix(0.4316 0 0 0.4316 725.7823 338.9693)" id="540192">
<g style="">
		<g transform="matrix(1.0512 0 0 1.0512 3.4625 10.9781)" id="717005">
<g style="">
		<g transform="matrix(0.1537 -0.1537 0.1395 0.1394 -0.0007 -0.0004)" id="580889">
<path style="stroke: rgb(47,53,64); stroke-width: 2; stroke-dasharray: none; stroke-linecap: butt; stroke-dashoffset: 0; stroke-linejoin: miter; stroke-miterlimit: 4; is-custom-font: none; font-file-url: none; fill: none; fill-rule: nonzero; opacity: 1;" vector-effect="non-scaling-stroke" transform=" translate(-79, -78.5002)" d="M 154.666 37.5934 H 3.33409 C 1.49273 37.5934 0 39.0767 0 40.9067 C 0.0749556 84.2303 35.4007 119.332 79 119.407 C 122.615 119.369 157.962 84.2455 158 40.9067 C 158 39.0767 156.507 37.5934 154.666 37.5934 Z" stroke-linecap="round"/>
</g>
		<g transform="matrix(0.1247 -0.1247 0.0987 0.0987 -0.1502 -0.1669)" id="120498">
<path style="stroke: none; stroke-width: 0; stroke-dasharray: none; stroke-linecap: butt; stroke-dashoffset: 0; stroke-linejoin: miter; stroke-miterlimit: 4; is-custom-font: none; font-file-url: none; fill: rgb(47,53,64); fill-rule: nonzero; opacity: 1;" vector-effect="non-scaling-stroke" transform=" translate(-79, -78.5002)" d="M 154.666 37.5934 H 3.33409 C 1.49273 37.5934 0 39.0767 0 40.9067 C 0.0749556 84.2303 35.4007 119.332 79 119.407 C 122.615 119.369 157.962 84.2455 158 40.9067 C 158 39.0767 156.507 37.5934 154.666 37.5934 Z" stroke-linecap="round"/>
</g>
</g>
</g>
		<g transform="matrix(-1.0512 0 0 -1.0512 -3.4616 -10.9772)" id="28882">
<g style="">
		<g transform="matrix(0.1537 -0.1537 0.1395 0.1394 -0.0007 -0.0004)" id="580889">
<path style="stroke: rgb(47,53,64); stroke-width: 2; stroke-dasharray: none; stroke-linecap: butt; stroke-dashoffset: 0; stroke-linejoin: miter; stroke-miterlimit: 4; is-custom-font: none; font-file-url: none; fill: none; fill-rule: nonzero; opacity: 1;" vector-effect="non-scaling-stroke" transform=" translate(-79, -78.5002)" d="M 154.666 37.5934 H 3.33409 C 1.49273 37.5934 0 39.0767 0 40.9067 C 0.0749556 84.2303 35.4007 119.332 79 119.407 C 122.615 119.369 157.962 84.2455 158 40.9067 C 158 39.0767 156.507 37.5934 154.666 37.5934 Z" stroke-linecap="round"/>
</g>
		<g transform="matrix(0.1247 -0.1247 0.0987 0.0987 -0.1502 -0.1669)" id="120498">
<path style="stroke: none; stroke-width: 0; stroke-dasharray: none; stroke-linecap: butt; stroke-dashoffset: 0; stroke-linejoin: miter; stroke-miterlimit: 4; is-custom-font: none; font-file-url: none; fill: rgb(47,53,64); fill-rule: nonzero; opacity: 1;" vector-effect="non-scaling-stroke" transform=" translate(-79, -78.5002)" d="M 154.666 37.5934 H 3.33409 C 1.49273 37.5934 0 39.0767 0 40.9067 C 0.0749556 84.2303 35.4007 119.332 79 119.407 C 122.615 119.369 157.962 84.2455 158 40.9067 C 158 39.0767 156.507 37.5934 154.666 37.5934 Z" stroke-linecap="round"/>
</g>
</g>
</g>
</g>
</g>
<g transform="matrix(0.5573 0 0 0.5573 244.7302 388.525)" id="439329">
<g style="">
		<g transform="matrix(0.1537 -0.1537 0.1395 0.1394 -0.0007 -0.0004)" id="580889">
<path style="stroke: rgb(47,53,64); stroke-width: 2; stroke-dasharray: none; stroke-linecap: butt; stroke-dashoffset: 0; stroke-linejoin: miter; stroke-miterlimit: 4; is-custom-font: none; font-file-url: none; fill: none; fill-rule: nonzero; opacity: 1;" vector-effect="non-scaling-stroke" transform=" translate(-79, -78.5002)" d="M 154.666 37.5934 H 3.33409 C 1.49273 37.5934 0 39.0767 0 40.9067 C 0.0749556 84.2303 35.4007 119.332 79 119.407 C 122.615 119.369 157.962 84.2455 158 40.9067 C 158 39.0767 156.507 37.5934 154.666 37.5934 Z" stroke-linecap="round"/>
</g>
		<g transform="matrix(0.1247 -0.1247 0.0987 0.0987 -0.1502 -0.1669)" id="120498">
<path style="stroke: none; stroke-width: 0; stroke-dasharray: none; stroke-linecap: butt; stroke-dashoffset: 0; stroke-linejoin: miter; stroke-miterlimit: 4; is-custom-font: none; font-file-url: none; fill: rgb(47,53,64); fill-rule: nonzero; opacity: 1;" vector-effect="non-scaling-stroke" transform=" translate(-79, -78.5002)" d="M 154.666 37.5934 H 3.33409 C 1.49273 37.5934 0 39.0767 0 40.9067 C 0.0749556 84.2303 35.4007 119.332 79 119.407 C 122.615 119.369 157.962 84.2455 158 40.9067 C 158 39.0767 156.507 37.5934 154.666 37.5934 Z" stroke-linecap="round"/>
</g>
</g>
</g>
<g transform="matrix(-0.6221 0 0 -0.6221 79.2923 444.0006)" id="728441">
<g style="">
		<g transform="matrix(0.1537 -0.1537 0.1395 0.1394 -0.0007 -0.0004)" id="580889">
<path style="stroke: rgb(47,53,64); stroke-width: 2; stroke-dasharray: none; stroke-linecap: butt; stroke-dashoffset: 0; stroke-linejoin: miter; stroke-miterlimit: 4; is-custom-font: none; font-file-url: none; fill: none; fill-rule: nonzero; opacity: 1;" vector-effect="non-scaling-stroke" transform=" translate(-79, -78.5002)" d="M 154.666 37.5934 H 3.33409 C 1.49273 37.5934 0 39.0767 0 40.9067 C 0.0749556 84.2303 35.4007 119.332 79 119.407 C 122.615 119.369 157.962 84.2455 158 40.9067 C 158 39.0767 156.507 37.5934 154.666 37.5934 Z" stroke-linecap="round"/>
</g>
		<g transform="matrix(0.1247 -0.1247 0.0987 0.0987 -0.1502 -0.1669)" id="120498">
<path style="stroke: none; stroke-width: 0; stroke-dasharray: none; stroke-linecap: butt; stroke-dashoffset: 0; stroke-linejoin: miter; stroke-miterlimit: 4; is-custom-font: none; font-file-url: none; fill: rgb(47,53,64); fill-rule: nonzero; opacity: 1;" vector-effect="non-scaling-stroke" transform=" translate(-79, -78.5002)" d="M 154.666 37.5934 H 3.33409 C 1.49273 37.5934 0 39.0767 0 40.9067 C 0.0749556 84.2303 35.4007 119.332 79 119.407 C 122.615 119.369 157.962 84.2455 158 40.9067 C 158 39.0767 156.507 37.5934 154.666 37.5934 Z" stroke-linecap="round"/>
</g>
</g>
</g>
<g transform="matrix(0.4316 0 0 0.4316 125.5978 325.6674)" id="420519">
<g style="">
		<g transform="matrix(1.0512 0 0 1.0512 3.4625 10.9781)" id="717005">
<g style="">
		<g transform="matrix(0.1537 -0.1537 0.1395 0.1394 -0.0007 -0.0004)" id="580889">
<path style="stroke: rgb(47,53,64); stroke-width: 2; stroke-dasharray: none; stroke-linecap: butt; stroke-dashoffset: 0; stroke-linejoin: miter; stroke-miterlimit: 4; is-custom-font: none; font-file-url: none; fill: none; fill-rule: nonzero; opacity: 1;" vector-effect="non-scaling-stroke" transform=" translate(-79, -78.5002)" d="M 154.666 37.5934 H 3.33409 C 1.49273 37.5934 0 39.0767 0 40.9067 C 0.0749556 84.2303 35.4007 119.332 79 119.407 C 122.615 119.369 157.962 84.2455 158 40.9067 C 158 39.0767 156.507 37.5934 154.666 37.5934 Z" stroke-linecap="round"/>
</g>
		<g transform="matrix(0.1247 -0.1247 0.0987 0.0987 -0.1502 -0.1669)" id="120498">
<path style="stroke: none; stroke-width: 0; stroke-dasharray: none; stroke-linecap: butt; stroke-dashoffset: 0; stroke-linejoin: miter; stroke-miterlimit: 4; is-custom-font: none; font-file-url: none; fill: rgb(47,53,64); fill-rule: nonzero; opacity: 1;" vector-effect="non-scaling-stroke" transform=" translate(-79, -78.5002)" d="M 154.666 37.5934 H 3.33409 C 1.49273 37.5934 0 39.0767 0 40.9067 C 0.0749556 84.2303 35.4007 119.332 79 119.407 C 122.615 119.369 157.962 84.2455 158 40.9067 C 158 39.0767 156.507 37.5934 154.666 37.5934 Z" stroke-linecap="round"/>
</g>
</g>
</g>
		<g transform="matrix(-1.0512 0 0 -1.0512 -3.4616 -10.9772)" id="28882">
<g style="">
		<g transform="matrix(0.1537 -0.1537 0.1395 0.1394 -0.0007 -0.0004)" id="580889">
<path style="stroke: rgb(47,53,64); stroke-width: 2; stroke-dasharray: none; stroke-linecap: butt; stroke-dashoffset: 0; stroke-linejoin: miter; stroke-miterlimit: 4; is-custom-font: none; font-file-url: none; fill: none; fill-rule: nonzero; opacity: 1;" vector-effect="non-scaling-stroke" transform=" translate(-79, -78.5002)" d="M 154.666 37.5934 H 3.33409 C 1.49273 37.5934 0 39.0767 0 40.9067 C 0.0749556 84.2303 35.4007 119.332 79 119.407 C 122.615 119.369 157.962 84.2455 158 40.9067 C 158 39.0767 156.507 37.5934 154.666 37.5934 Z" stroke-linecap="round"/>
</g>
		<g transform="matrix(0.1247 -0.1247 0.0987 0.0987 -0.1502 -0.1669)" id="120498">
<path style="stroke: none; stroke-width: 0; stroke-dasharray: none; stroke-linecap: butt; stroke-dashoffset: 0; stroke-linejoin: miter; stroke-miterlimit: 4; is-custom-font: none; font-file-url: none; fill: rgb(47,53,64); fill-rule: nonzero; opacity: 1;" vector-effect="non-scaling-stroke" transform=" translate(-79, -78.5002)" d="M 154.666 37.5934 H 3.33409 C 1.49273 37.5934 0 39.0767 0 40.9067 C 0.0749556 84.2303 35.4007 119.332 79 119.407 C 122.615 119.369 157.962 84.2455 158 40.9067 C 158 39.0767 156.507 37.5934 154.666 37.5934 Z" stroke-linecap="round"/>
</g>
</g>
</g>
</g>
</g>
<g transform="matrix(0.4316 0 0 0.4316 202.623 531.3319)" id="288128">
<g style="">
		<g transform="matrix(1.0512 0 0 1.0512 3.4625 10.9781)" id="717005">
<g style="">
		<g transform="matrix(0.1537 -0.1537 0.1395 0.1394 -0.0007 -0.0004)" id="580889">
<path style="stroke: rgb(47,53,64); stroke-width: 2; stroke-dasharray: none; stroke-linecap: butt; stroke-dashoffset: 0; stroke-linejoin: miter; stroke-miterlimit: 4; is-custom-font: none; font-file-url: none; fill: none; fill-rule: nonzero; opacity: 1;" vector-effect="non-scaling-stroke" transform=" translate(-79, -78.5002)" d="M 154.666 37.5934 H 3.33409 C 1.49273 37.5934 0 39.0767 0 40.9067 C 0.0749556 84.2303 35.4007 119.332 79 119.407 C 122.615 119.369 157.962 84.2455 158 40.9067 C 158 39.0767 156.507 37.5934 154.666 37.5934 Z" stroke-linecap="round"/>
</g>
		<g transform="matrix(0.1247 -0.1247 0.0987 0.0987 -0.1502 -0.1669)" id="120498">
<path style="stroke: none; stroke-width: 0; stroke-dasharray: none; stroke-linecap: butt; stroke-dashoffset: 0; stroke-linejoin: miter; stroke-miterlimit: 4; is-custom-font: none; font-file-url: none; fill: rgb(47,53,64); fill-rule: nonzero; opacity: 1;" vector-effect="non-scaling-stroke" transform=" translate(-79, -78.5002)" d="M 154.666 37.5934 H 3.33409 C 1.49273 37.5934 0 39.0767 0 40.9067 C 0.0749556 84.2303 35.4007 119.332 79 119.407 C 122.615 119.369 157.962 84.2455 158 40.9067 C 158 39.0767 156.507 37.5934 154.666 37.5934 Z" stroke-linecap="round"/>
</g>
</g>
</g>
		<g transform="matrix(-1.0512 0 0 -1.0512 -3.4616 -10.9772)" id="28882">
<g style="">
		<g transform="matrix(0.1537 -0.1537 0.1395 0.1394 -0.0007 -0.0004)" id="580889">
<path style="stroke: rgb(47,53,64); stroke-width: 2; stroke-dasharray: none; stroke-linecap: butt; stroke-dashoffset: 0; stroke-linejoin: miter; stroke-miterlimit: 4; is-custom-font: none; font-file-url: none; fill: none; fill-rule: nonzero; opacity: 1;" vector-effect="non-scaling-stroke" transform=" translate(-79, -78.5002)" d="M 154.666 37.5934 H 3.33409 C 1.49273 37.5934 0 39.0767 0 40.9067 C 0.0749556 84.2303 35.4007 119.332 79 119.407 C 122.615 119.369 157.962 84.2455 158 40.9067 C 158 39.0767 156.507 37.5934 154.666 37.5934 Z" stroke-linecap="round"/>
</g>
		<g transform="matrix(0.1247 -0.1247 0.0987 0.0987 -0.1502 -0.1669)" id="120498">
<path style="stroke: none; stroke-width: 0; stroke-dasharray: none; stroke-linecap: butt; stroke-dashoffset: 0; stroke-linejoin: miter; stroke-miterlimit: 4; is-custom-font: none; font-file-url: none; fill: rgb(47,53,64); fill-rule: nonzero; opacity: 1;" vector-effect="non-scaling-stroke" transform=" translate(-79, -78.5002)" d="M 154.666 37.5934 H 3.33409 C 1.49273 37.5934 0 39.0767 0 40.9067 C 0.0749556 84.2303 35.4007 119.332 79 119.407 C 122.615 119.369 157.962 84.2455 158 40.9067 C 158 39.0767 156.507 37.5934 154.666 37.5934 Z" stroke-linecap="round"/>
</g>
</g>
</g>
</g>
</g>
<g transform="matrix(0.5573 0 0 0.5573 573.2447 496.8788)" id="67294">
<g style="">
		<g transform="matrix(0.1537 -0.1537 0.1395 0.1394 -0.0007 -0.0004)" id="580889">
<path style="stroke: rgb(47,53,64); stroke-width: 2; stroke-dasharray: none; stroke-linecap: butt; stroke-dashoffset: 0; stroke-linejoin: miter; stroke-miterlimit: 4; is-custom-font: none; font-file-url: none; fill: none; fill-rule: nonzero; opacity: 1;" vector-effect="non-scaling-stroke" transform=" translate(-79, -78.5002)" d="M 154.666 37.5934 H 3.33409 C 1.49273 37.5934 0 39.0767 0 40.9067 C 0.0749556 84.2303 35.4007 119.332 79 119.407 C 122.615 119.369 157.962 84.2455 158 40.9067 C 158 39.0767 156.507 37.5934 154.666 37.5934 Z" stroke-linecap="round"/>
</g>
		<g transform="matrix(0.1247 -0.1247 0.0987 0.0987 -0.1502 -0.1669)" id="120498">
<path style="stroke: none; stroke-width: 0; stroke-dasharray: none; stroke-linecap: butt; stroke-dashoffset: 0; stroke-linejoin: miter; stroke-miterlimit: 4; is-custom-font: none; font-file-url: none; fill: rgb(47,53,64); fill-rule: nonzero; opacity: 1;" vector-effect="non-scaling-stroke" transform=" translate(-79, -78.5002)" d="M 154.666 37.5934 H 3.33409 C 1.49273 37.5934 0 39.0767 0 40.9067 C 0.0749556 84.2303 35.4007 119.332 79 119.407 C 122.615 119.369 157.962 84.2455 158 40.9067 C 158 39.0767 156.507 37.5934 154.666 37.5934 Z" stroke-linecap="round"/>
</g>
</g>
</g>
<g transform="matrix(-0.6221 0 0 -0.6221 407.8068 552.3544)" id="634399">
<g style="">
		<g transform="matrix(0.1537 -0.1537 0.1395 0.1394 -0.0007 -0.0004)" id="580889">
<path style="stroke: rgb(47,53,64); stroke-width: 2; stroke-dasharray: none; stroke-linecap: butt; stroke-dashoffset: 0; stroke-linejoin: miter; stroke-miterlimit: 4; is-custom-font: none; font-file-url: none; fill: none; fill-rule: nonzero; opacity: 1;" vector-effect="non-scaling-stroke" transform=" translate(-79, -78.5002)" d="M 154.666 37.5934 H 3.33409 C 1.49273 37.5934 0 39.0767 0 40.9067 C 0.0749556 84.2303 35.4007 119.332 79 119.407 C 122.615 119.369 157.962 84.2455 158 40.9067 C 158 39.0767 156.507 37.5934 154.666 37.5934 Z" stroke-linecap="round"/>
</g>
		<g transform="matrix(0.1247 -0.1247 0.0987 0.0987 -0.1502 -0.1669)" id="120498">
<path style="stroke: none; stroke-width: 0; stroke-dasharray: none; stroke-linecap: butt; stroke-dashoffset: 0; stroke-linejoin: miter; stroke-miterlimit: 4; is-custom-font: none; font-file-url: none; fill: rgb(47,53,64); fill-rule: nonzero; opacity: 1;" vector-effect="non-scaling-stroke" transform=" translate(-79, -78.5002)" d="M 154.666 37.5934 H 3.33409 C 1.49273 37.5934 0 39.0767 0 40.9067 C 0.0749556 84.2303 35.4007 119.332 79 119.407 C 122.615 119.369 157.962 84.2455 158 40.9067 C 158 39.0767 156.507 37.5934 154.666 37.5934 Z" stroke-linecap="round"/>
</g>
</g>
</g>
<g transform="matrix(0.4316 0 0 0.4316 454.1123 434.0212)" id="83269">
<g style="">
		<g transform="matrix(1.0512 0 0 1.0512 3.4625 10.9781)" id="717005">
<g style="">
		<g transform="matrix(0.1537 -0.1537 0.1395 0.1394 -0.0007 -0.0004)" id="580889">
<path style="stroke: rgb(47,53,64); stroke-width: 2; stroke-dasharray: none; stroke-linecap: butt; stroke-dashoffset: 0; stroke-linejoin: miter; stroke-miterlimit: 4; is-custom-font: none; font-file-url: none; fill: none; fill-rule: nonzero; opacity: 1;" vector-effect="non-scaling-stroke" transform=" translate(-79, -78.5002)" d="M 154.666 37.5934 H 3.33409 C 1.49273 37.5934 0 39.0767 0 40.9067 C 0.0749556 84.2303 35.4007 119.332 79 119.407 C 122.615 119.369 157.962 84.2455 158 40.9067 C 158 39.0767 156.507 37.5934 154.666 37.5934 Z" stroke-linecap="round"/>
</g>
		<g transform="matrix(0.1247 -0.1247 0.0987 0.0987 -0.1502 -0.1669)" id="120498">
<path style="stroke: none; stroke-width: 0; stroke-dasharray: none; stroke-linecap: butt; stroke-dashoffset: 0; stroke-linejoin: miter; stroke-miterlimit: 4; is-custom-font: none; font-file-url: none; fill: rgb(47,53,64); fill-rule: nonzero; opacity: 1;" vector-effect="non-scaling-stroke" transform=" translate(-79, -78.5002)" d="M 154.666 37.5934 H 3.33409 C 1.49273 37.5934 0 39.0767 0 40.9067 C 0.0749556 84.2303 35.4007 119.332 79 119.407 C 122.615 119.369 157.962 84.2455 158 40.9067 C 158 39.0767 156.507 37.5934 154.666 37.5934 Z" stroke-linecap="round"/>
</g>
</g>
</g>
		<g transform="matrix(-1.0512 0 0 -1.0512 -3.4616 -10.9772)" id="28882">
<g style="">
		<g transform="matrix(0.1537 -0.1537 0.1395 0.1394 -0.0007 -0.0004)" id="580889">
<path style="stroke: rgb(47,53,64); stroke-width: 2; stroke-dasharray: none; stroke-linecap: butt; stroke-dashoffset: 0; stroke-linejoin: miter; stroke-miterlimit: 4; is-custom-font: none; font-file-url: none; fill: none; fill-rule: nonzero; opacity: 1;" vector-effect="non-scaling-stroke" transform=" translate(-79, -78.5002)" d="M 154.666 37.5934 H 3.33409 C 1.49273 37.5934 0 39.0767 0 40.9067 C 0.0749556 84.2303 35.4007 119.332 79 119.407 C 122.615 119.369 157.962 84.2455 158 40.9067 C 158 39.0767 156.507 37.5934 154.666 37.5934 Z" stroke-linecap="round"/>
</g>
		<g transform="matrix(0.1247 -0.1247 0.0987 0.0987 -0.1502 -0.1669)" id="120498">
<path style="stroke: none; stroke-width: 0; stroke-dasharray: none; stroke-linecap: butt; stroke-dashoffset: 0; stroke-linejoin: miter; stroke-miterlimit: 4; is-custom-font: none; font-file-url: none; fill: rgb(47,53,64); fill-rule: nonzero; opacity: 1;" vector-effect="non-scaling-stroke" transform=" translate(-79, -78.5002)" d="M 154.666 37.5934 H 3.33409 C 1.49273 37.5934 0 39.0767 0 40.9067 C 0.0749556 84.2303 35.4007 119.332 79 119.407 C 122.615 119.369 157.962 84.2455 158 40.9067 C 158 39.0767 156.507 37.5934 154.666 37.5934 Z" stroke-linecap="round"/>
</g>
</g>
</g>
</g>
</g>
<g transform="matrix(0.4316 0 0 0.4316 531.1375 639.6857)" id="44850">
<g style="">
		<g transform="matrix(1.0512 0 0 1.0512 3.4625 10.9781)" id="717005">
<g style="">
		<g transform="matrix(0.1537 -0.1537 0.1395 0.1394 -0.0007 -0.0004)" id="580889">
<path style="stroke: rgb(47,53,64); stroke-width: 2; stroke-dasharray: none; stroke-linecap: butt; stroke-dashoffset: 0; stroke-linejoin: miter; stroke-miterlimit: 4; is-custom-font: none; font-file-url: none; fill: none; fill-rule: nonzero; opacity: 1;" vector-effect="non-scaling-stroke" transform=" translate(-79, -78.5002)" d="M 154.666 37.5934 H 3.33409 C 1.49273 37.5934 0 39.0767 0 40.9067 C 0.0749556 84.2303 35.4007 119.332 79 119.407 C 122.615 119.369 157.962 84.2455 158 40.9067 C 158 39.0767 156.507 37.5934 154.666 37.5934 Z" stroke-linecap="round"/>
</g>
		<g transform="matrix(0.1247 -0.1247 0.0987 0.0987 -0.1502 -0.1669)" id="120498">
<path style="stroke: none; stroke-width: 0; stroke-dasharray: none; stroke-linecap: butt; stroke-dashoffset: 0; stroke-linejoin: miter; stroke-miterlimit: 4; is-custom-font: none; font-file-url: none; fill: rgb(47,53,64); fill-rule: nonzero; opacity: 1;" vector-effect="non-scaling-stroke" transform=" translate(-79, -78.5002)" d="M 154.666 37.5934 H 3.33409 C 1.49273 37.5934 0 39.0767 0 40.9067 C 0.0749556 84.2303 35.4007 119.332 79 119.407 C 122.615 119.369 157.962 84.2455 158 40.9067 C 158 39.0767 156.507 37.5934 154.666 37.5934 Z" stroke-linecap="round"/>
</g>
</g>
</g>
		<g transform="matrix(-1.0512 0 0 -1.0512 -3.4616 -10.9772)" id="28882">
<g style="">
		<g transform="matrix(0.1537 -0.1537 0.1395 0.1394 -0.0007 -0.0004)" id="580889">
<path style="stroke: rgb(47,53,64); stroke-width: 2; stroke-dasharray: none; stroke-linecap: butt; stroke-dashoffset: 0; stroke-linejoin: miter; stroke-miterlimit: 4; is-custom-font: none; font-file-url: none; fill: none; fill-rule: nonzero; opacity: 1;" vector-effect="non-scaling-stroke" transform=" translate(-79, -78.5002)" d="M 154.666 37.5934 H 3.33409 C 1.49273 37.5934 0 39.0767 0 40.9067 C 0.0749556 84.2303 35.4007 119.332 79 119.407 C 122.615 119.369 157.962 84.2455 158 40.9067 C 158 39.0767 156.507 37.5934 154.666 37.5934 Z" stroke-linecap="round"/>
</g>
		<g transform="matrix(0.1247 -0.1247 0.0987 0.0987 -0.1502 -0.1669)" id="120498">
<path style="stroke: none; stroke-width: 0; stroke-dasharray: none; stroke-linecap: butt; stroke-dashoffset: 0; stroke-linejoin: miter; stroke-miterlimit: 4; is-custom-font: none; font-file-url: none; fill: rgb(47,53,64); fill-rule: nonzero; opacity: 1;" vector-effect="non-scaling-stroke" transform=" translate(-79, -78.5002)" d="M 154.666 37.5934 H 3.33409 C 1.49273 37.5934 0 39.0767 0 40.9067 C 0.0749556 84.2303 35.4007 119.332 79 119.407 C 122.615 119.369 157.962 84.2455 158 40.9067 C 158 39.0767 156.507 37.5934 154.666 37.5934 Z" stroke-linecap="round"/>
</g>
</g>
</g>
</g>
</g>
<g transform="matrix(0.5573 0 0 0.5573 868.4453 545.8473)" id="820783">
<g style="">
		<g transform="matrix(0.1537 -0.1537 0.1395 0.1394 -0.0007 -0.0004)" id="580889">
<path style="stroke: rgb(47,53,64); stroke-width: 2; stroke-dasharray: none; stroke-linecap: butt; stroke-dashoffset: 0; stroke-linejoin: miter; stroke-miterlimit: 4; is-custom-font: none; font-file-url: none; fill: none; fill-rule: nonzero; opacity: 1;" vector-effect="non-scaling-stroke" transform=" translate(-79, -78.5002)" d="M 154.666 37.5934 H 3.33409 C 1.49273 37.5934 0 39.0767 0 40.9067 C 0.0749556 84.2303 35.4007 119.332 79 119.407 C 122.615 119.369 157.962 84.2455 158 40.9067 C 158 39.0767 156.507 37.5934 154.666 37.5934 Z" stroke-linecap="round"/>
</g>
		<g transform="matrix(0.1247 -0.1247 0.0987 0.0987 -0.1502 -0.1669)" id="120498">
<path style="stroke: none; stroke-width: 0; stroke-dasharray: none; stroke-linecap: butt; stroke-dashoffset: 0; stroke-linejoin: miter; stroke-miterlimit: 4; is-custom-font: none; font-file-url: none; fill: rgb(47,53,64); fill-rule: nonzero; opacity: 1;" vector-effect="non-scaling-stroke" transform=" translate(-79, -78.5002)" d="M 154.666 37.5934 H 3.33409 C 1.49273 37.5934 0 39.0767 0 40.9067 C 0.0749556 84.2303 35.4007 119.332 79 119.407 C 122.615 119.369 157.962 84.2455 158 40.9067 C 158 39.0767 156.507 37.5934 154.666 37.5934 Z" stroke-linecap="round"/>
</g>
</g>
</g>
<g transform="matrix(-0.6221 0 0 -0.6221 703.0074 601.3229)" id="718212">
<g style="">
		<g transform="matrix(0.1537 -0.1537 0.1395 0.1394 -0.0007 -0.0004)" id="580889">
<path style="stroke: rgb(47,53,64); stroke-width: 2; stroke-dasharray: none; stroke-linecap: butt; stroke-dashoffset: 0; stroke-linejoin: miter; stroke-miterlimit: 4; is-custom-font: none; font-file-url: none; fill: none; fill-rule: nonzero; opacity: 1;" vector-effect="non-scaling-stroke" transform=" translate(-79, -78.5002)" d="M 154.666 37.5934 H 3.33409 C 1.49273 37.5934 0 39.0767 0 40.9067 C 0.0749556 84.2303 35.4007 119.332 79 119.407 C 122.615 119.369 157.962 84.2455 158 40.9067 C 158 39.0767 156.507 37.5934 154.666 37.5934 Z" stroke-linecap="round"/>
</g>
		<g transform="matrix(0.1247 -0.1247 0.0987 0.0987 -0.1502 -0.1669)" id="120498">
<path style="stroke: none; stroke-width: 0; stroke-dasharray: none; stroke-linecap: butt; stroke-dashoffset: 0; stroke-linejoin: miter; stroke-miterlimit: 4; is-custom-font: none; font-file-url: none; fill: rgb(47,53,64); fill-rule: nonzero; opacity: 1;" vector-effect="non-scaling-stroke" transform=" translate(-79, -78.5002)" d="M 154.666 37.5934 H 3.33409 C 1.49273 37.5934 0 39.0767 0 40.9067 C 0.0749556 84.2303 35.4007 119.332 79 119.407 C 122.615 119.369 157.962 84.2455 158 40.9067 C 158 39.0767 156.507 37.5934 154.666 37.5934 Z" stroke-linecap="round"/>
</g>
</g>
</g>
<g transform="matrix(0.4316 0 0 0.4316 749.3129 482.9897)" id="577265">
<g style="">
		<g transform="matrix(1.0512 0 0 1.0512 3.4625 10.9781)" id="717005">
<g style="">
		<g transform="matrix(0.1537 -0.1537 0.1395 0.1394 -0.0007 -0.0004)" id="580889">
<path style="stroke: rgb(47,53,64); stroke-width: 2; stroke-dasharray: none; stroke-linecap: butt; stroke-dashoffset: 0; stroke-linejoin: miter; stroke-miterlimit: 4; is-custom-font: none; font-file-url: none; fill: none; fill-rule: nonzero; opacity: 1;" vector-effect="non-scaling-stroke" transform=" translate(-79, -78.5002)" d="M 154.666 37.5934 H 3.33409 C 1.49273 37.5934 0 39.0767 0 40.9067 C 0.0749556 84.2303 35.4007 119.332 79 119.407 C 122.615 119.369 157.962 84.2455 158 40.9067 C 158 39.0767 156.507 37.5934 154.666 37.5934 Z" stroke-linecap="round"/>
</g>
		<g transform="matrix(0.1247 -0.1247 0.0987 0.0987 -0.1502 -0.1669)" id="120498">
<path style="stroke: none; stroke-width: 0; stroke-dasharray: none; stroke-linecap: butt; stroke-dashoffset: 0; stroke-linejoin: miter; stroke-miterlimit: 4; is-custom-font: none; font-file-url: none; fill: rgb(47,53,64); fill-rule: nonzero; opacity: 1;" vector-effect="non-scaling-stroke" transform=" translate(-79, -78.5002)" d="M 154.666 37.5934 H 3.33409 C 1.49273 37.5934 0 39.0767 0 40.9067 C 0.0749556 84.2303 35.4007 119.332 79 119.407 C 122.615 119.369 157.962 84.2455 158 40.9067 C 158 39.0767 156.507 37.5934 154.666 37.5934 Z" stroke-linecap="round"/>
</g>
</g>
</g>
		<g transform="matrix(-1.0512 0 0 -1.0512 -3.4616 -10.9772)" id="28882">
<g style="">
		<g transform="matrix(0.1537 -0.1537 0.1395 0.1394 -0.0007 -0.0004)" id="580889">
<path style="stroke: rgb(47,53,64); stroke-width: 2; stroke-dasharray: none; stroke-linecap: butt; stroke-dashoffset: 0; stroke-linejoin: miter; stroke-miterlimit: 4; is-custom-font: none; font-file-url: none; fill: none; fill-rule: nonzero; opacity: 1;" vector-effect="non-scaling-stroke" transform=" translate(-79, -78.5002)" d="M 154.666 37.5934 H 3.33409 C 1.49273 37.5934 0 39.0767 0 40.9067 C 0.0749556 84.2303 35.4007 119.332 79 119.407 C 122.615 119.369 157.962 84.2455 158 40.9067 C 158 39.0767 156.507 37.5934 154.666 37.5934 Z" stroke-linecap="round"/>
</g>
		<g transform="matrix(0.1247 -0.1247 0.0987 0.0987 -0.1502 -0.1669)" id="120498">
<path style="stroke: none; stroke-width: 0; stroke-dasharray: none; stroke-linecap: butt; stroke-dashoffset: 0; stroke-linejoin: miter; stroke-miterlimit: 4; is-custom-font: none; font-file-url: none; fill: rgb(47,53,64); fill-rule: nonzero; opacity: 1;" vector-effect="non-scaling-stroke" transform=" translate(-79, -78.5002)" d="M 154.666 37.5934 H 3.33409 C 1.49273 37.5934 0 39.0767 0 40.9067 C 0.0749556 84.2303 35.4007 119.332 79 119.407 C 122.615 119.369 157.962 84.2455 158 40.9067 C 158 39.0767 156.507 37.5934 154.666 37.5934 Z" stroke-linecap="round"/>
</g>
</g>
</g>
</g>
</g>
<g transform="matrix(0.4316 0 0 0.4316 826.3381 688.6542)" id="497193">
<g style="">
		<g transform="matrix(1.0512 0 0 1.0512 3.4625 10.9781)" id="717005">
<g style="">
		<g transform="matrix(0.1537 -0.1537 0.1395 0.1394 -0.0007 -0.0004)" id="580889">
<path style="stroke: rgb(47,53,64); stroke-width: 2; stroke-dasharray: none; stroke-linecap: butt; stroke-dashoffset: 0; stroke-linejoin: miter; stroke-miterlimit: 4; is-custom-font: none; font-file-url: none; fill: none; fill-rule: nonzero; opacity: 1;" vector-effect="non-scaling-stroke" transform=" translate(-79, -78.5002)" d="M 154.666 37.5934 H 3.33409 C 1.49273 37.5934 0 39.0767 0 40.9067 C 0.0749556 84.2303 35.4007 119.332 79 119.407 C 122.615 119.369 157.962 84.2455 158 40.9067 C 158 39.0767 156.507 37.5934 154.666 37.5934 Z" stroke-linecap="round"/>
</g>
		<g transform="matrix(0.1247 -0.1247 0.0987 0.0987 -0.1502 -0.1669)" id="120498">
<path style="stroke: none; stroke-width: 0; stroke-dasharray: none; stroke-linecap: butt; stroke-dashoffset: 0; stroke-linejoin: miter; stroke-miterlimit: 4; is-custom-font: none; font-file-url: none; fill: rgb(47,53,64); fill-rule: nonzero; opacity: 1;" vector-effect="non-scaling-stroke" transform=" translate(-79, -78.5002)" d="M 154.666 37.5934 H 3.33409 C 1.49273 37.5934 0 39.0767 0 40.9067 C 0.0749556 84.2303 35.4007 119.332 79 119.407 C 122.615 119.369 157.962 84.2455 158 40.9067 C 158 39.0767 156.507 37.5934 154.666 37.5934 Z" stroke-linecap="round"/>
</g>
</g>
</g>
		<g transform="matrix(-1.0512 0 0 -1.0512 -3.4616 -10.9772)" id="28882">
<g style="">
		<g transform="matrix(0.1537 -0.1537 0.1395 0.1394 -0.0007 -0.0004)" id="580889">
<path style="stroke: rgb(47,53,64); stroke-width: 2; stroke-dasharray: none; stroke-linecap: butt; stroke-dashoffset: 0; stroke-linejoin: miter; stroke-miterlimit: 4; is-custom-font: none; font-file-url: none; fill: none; fill-rule: nonzero; opacity: 1;" vector-effect="non-scaling-stroke" transform=" translate(-79, -78.5002)" d="M 154.666 37.5934 H 3.33409 C 1.49273 37.5934 0 39.0767 0 40.9067 C 0.0749556 84.2303 35.4007 119.332 79 119.407 C 122.615 119.369 157.962 84.2455 158 40.9067 C 158 39.0767 156.507 37.5934 154.666 37.5934 Z" stroke-linecap="round"/>
</g>
		<g transform="matrix(0.1247 -0.1247 0.0987 0.0987 -0.1502 -0.1669)" id="120498">
<path style="stroke: none; stroke-width: 0; stroke-dasharray: none; stroke-linecap: butt; stroke-dashoffset: 0; stroke-linejoin: miter; stroke-miterlimit: 4; is-custom-font: none; font-file-url: none; fill: rgb(47,53,64); fill-rule: nonzero; opacity: 1;" vector-effect="non-scaling-stroke" transform=" translate(-79, -78.5002)" d="M 154.666 37.5934 H 3.33409 C 1.49273 37.5934 0 39.0767 0 40.9067 C 0.0749556 84.2303 35.4007 119.332 79 119.407 C 122.615 119.369 157.962 84.2455 158 40.9067 C 158 39.0767 156.507 37.5934 154.666 37.5934 Z" stroke-linecap="round"/>
</g>
</g>
</g>
</g>
</g>
<g transform="matrix(0.5573 0 0 0.5573 277.2102 770.0752)" id="568163">
<g style="">
		<g transform="matrix(0.1537 -0.1537 0.1395 0.1394 -0.0007 -0.0004)" id="580889">
<path style="stroke: rgb(47,53,64); stroke-width: 2; stroke-dasharray: none; stroke-linecap: butt; stroke-dashoffset: 0; stroke-linejoin: miter; stroke-miterlimit: 4; is-custom-font: none; font-file-url: none; fill: none; fill-rule: nonzero; opacity: 1;" vector-effect="non-scaling-stroke" transform=" translate(-79, -78.5002)" d="M 154.666 37.5934 H 3.33409 C 1.49273 37.5934 0 39.0767 0 40.9067 C 0.0749556 84.2303 35.4007 119.332 79 119.407 C 122.615 119.369 157.962 84.2455 158 40.9067 C 158 39.0767 156.507 37.5934 154.666 37.5934 Z" stroke-linecap="round"/>
</g>
		<g transform="matrix(0.1247 -0.1247 0.0987 0.0987 -0.1502 -0.1669)" id="120498">
<path style="stroke: none; stroke-width: 0; stroke-dasharray: none; stroke-linecap: butt; stroke-dashoffset: 0; stroke-linejoin: miter; stroke-miterlimit: 4; is-custom-font: none; font-file-url: none; fill: rgb(47,53,64); fill-rule: nonzero; opacity: 1;" vector-effect="non-scaling-stroke" transform=" translate(-79, -78.5002)" d="M 154.666 37.5934 H 3.33409 C 1.49273 37.5934 0 39.0767 0 40.9067 C 0.0749556 84.2303 35.4007 119.332 79 119.407 C 122.615 119.369 157.962 84.2455 158 40.9067 C 158 39.0767 156.507 37.5934 154.666 37.5934 Z" stroke-linecap="round"/>
</g>
</g>
</g>
<g transform="matrix(-0.6221 0 0 -0.6221 111.7723 825.5508)" id="770552">
<g style="">
		<g transform="matrix(0.1537 -0.1537 0.1395 0.1394 -0.0007 -0.0004)" id="580889">
<path style="stroke: rgb(47,53,64); stroke-width: 2; stroke-dasharray: none; stroke-linecap: butt; stroke-dashoffset: 0; stroke-linejoin: miter; stroke-miterlimit: 4; is-custom-font: none; font-file-url: none; fill: none; fill-rule: nonzero; opacity: 1;" vector-effect="non-scaling-stroke" transform=" translate(-79, -78.5002)" d="M 154.666 37.5934 H 3.33409 C 1.49273 37.5934 0 39.0767 0 40.9067 C 0.0749556 84.2303 35.4007 119.332 79 119.407 C 122.615 119.369 157.962 84.2455 158 40.9067 C 158 39.0767 156.507 37.5934 154.666 37.5934 Z" stroke-linecap="round"/>
</g>
		<g transform="matrix(0.1247 -0.1247 0.0987 0.0987 -0.1502 -0.1669)" id="120498">
<path style="stroke: none; stroke-width: 0; stroke-dasharray: none; stroke-linecap: butt; stroke-dashoffset: 0; stroke-linejoin: miter; stroke-miterlimit: 4; is-custom-font: none; font-file-url: none; fill: rgb(47,53,64); fill-rule: nonzero; opacity: 1;" vector-effect="non-scaling-stroke" transform=" translate(-79, -78.5002)" d="M 154.666 37.5934 H 3.33409 C 1.49273 37.5934 0 39.0767 0 40.9067 C 0.0749556 84.2303 35.4007 119.332 79 119.407 C 122.615 119.369 157.962 84.2455 158 40.9067 C 158 39.0767 156.507 37.5934 154.666 37.5934 Z" stroke-linecap="round"/>
</g>
</g>
</g>
<g transform="matrix(0.4316 0 0 0.4316 158.0778 707.2176)" id="45855">
<g style="">
		<g transform="matrix(1.0512 0 0 1.0512 3.4625 10.9781)" id="717005">
<g style="">
		<g transform="matrix(0.1537 -0.1537 0.1395 0.1394 -0.0007 -0.0004)" id="580889">
<path style="stroke: rgb(47,53,64); stroke-width: 2; stroke-dasharray: none; stroke-linecap: butt; stroke-dashoffset: 0; stroke-linejoin: miter; stroke-miterlimit: 4; is-custom-font: none; font-file-url: none; fill: none; fill-rule: nonzero; opacity: 1;" vector-effect="non-scaling-stroke" transform=" translate(-79, -78.5002)" d="M 154.666 37.5934 H 3.33409 C 1.49273 37.5934 0 39.0767 0 40.9067 C 0.0749556 84.2303 35.4007 119.332 79 119.407 C 122.615 119.369 157.962 84.2455 158 40.9067 C 158 39.0767 156.507 37.5934 154.666 37.5934 Z" stroke-linecap="round"/>
</g>
		<g transform="matrix(0.1247 -0.1247 0.0987 0.0987 -0.1502 -0.1669)" id="120498">
<path style="stroke: none; stroke-width: 0; stroke-dasharray: none; stroke-linecap: butt; stroke-dashoffset: 0; stroke-linejoin: miter; stroke-miterlimit: 4; is-custom-font: none; font-file-url: none; fill: rgb(47,53,64); fill-rule: nonzero; opacity: 1;" vector-effect="non-scaling-stroke" transform=" translate(-79, -78.5002)" d="M 154.666 37.5934 H 3.33409 C 1.49273 37.5934 0 39.0767 0 40.9067 C 0.0749556 84.2303 35.4007 119.332 79 119.407 C 122.615 119.369 157.962 84.2455 158 40.9067 C 158 39.0767 156.507 37.5934 154.666 37.5934 Z" stroke-linecap="round"/>
</g>
</g>
</g>
		<g transform="matrix(-1.0512 0 0 -1.0512 -3.4616 -10.9772)" id="28882">
<g style="">
		<g transform="matrix(0.1537 -0.1537 0.1395 0.1394 -0.0007 -0.0004)" id="580889">
<path style="stroke: rgb(47,53,64); stroke-width: 2; stroke-dasharray: none; stroke-linecap: butt; stroke-dashoffset: 0; stroke-linejoin: miter; stroke-miterlimit: 4; is-custom-font: none; font-file-url: none; fill: none; fill-rule: nonzero; opacity: 1;" vector-effect="non-scaling-stroke" transform=" translate(-79, -78.5002)" d="M 154.666 37.5934 H 3.33409 C 1.49273 37.5934 0 39.0767 0 40.9067 C 0.0749556 84.2303 35.4007 119.332 79 119.407 C 122.615 119.369 157.962 84.2455 158 40.9067 C 158 39.0767 156.507 37.5934 154.666 37.5934 Z" stroke-linecap="round"/>
</g>
		<g transform="matrix(0.1247 -0.1247 0.0987 0.0987 -0.1502 -0.1669)" id="120498">
<path style="stroke: none; stroke-width: 0; stroke-dasharray: none; stroke-linecap: butt; stroke-dashoffset: 0; stroke-linejoin: miter; stroke-miterlimit: 4; is-custom-font: none; font-file-url: none; fill: rgb(47,53,64); fill-rule: nonzero; opacity: 1;" vector-effect="non-scaling-stroke" transform=" translate(-79, -78.5002)" d="M 154.666 37.5934 H 3.33409 C 1.49273 37.5934 0 39.0767 0 40.9067 C 0.0749556 84.2303 35.4007 119.332 79 119.407 C 122.615 119.369 157.962 84.2455 158 40.9067 C 158 39.0767 156.507 37.5934 154.666 37.5934 Z" stroke-linecap="round"/>
</g>
</g>
</g>
</g>
</g>
<g transform="matrix(0.4316 0 0 0.4316 235.103 912.8821)" id="977982">
<g style="">
		<g transform="matrix(1.0512 0 0 1.0512 3.4625 10.9781)" id="717005">
<g style="">
		<g transform="matrix(0.1537 -0.1537 0.1395 0.1394 -0.0007 -0.0004)" id="580889">
<path style="stroke: rgb(47,53,64); stroke-width: 2; stroke-dasharray: none; stroke-linecap: butt; stroke-dashoffset: 0; stroke-linejoin: miter; stroke-miterlimit: 4; is-custom-font: none; font-file-url: none; fill: none; fill-rule: nonzero; opacity: 1;" vector-effect="non-scaling-stroke" transform=" translate(-79, -78.5002)" d="M 154.666 37.5934 H 3.33409 C 1.49273 37.5934 0 39.0767 0 40.9067 C 0.0749556 84.2303 35.4007 119.332 79 119.407 C 122.615 119.369 157.962 84.2455 158 40.9067 C 158 39.0767 156.507 37.5934 154.666 37.5934 Z" stroke-linecap="round"/>
</g>
		<g transform="matrix(0.1247 -0.1247 0.0987 0.0987 -0.1502 -0.1669)" id="120498">
<path style="stroke: none; stroke-width: 0; stroke-dasharray: none; stroke-linecap: butt; stroke-dashoffset: 0; stroke-linejoin: miter; stroke-miterlimit: 4; is-custom-font: none; font-file-url: none; fill: rgb(47,53,64); fill-rule: nonzero; opacity: 1;" vector-effect="non-scaling-stroke" transform=" translate(-79, -78.5002)" d="M 154.666 37.5934 H 3.33409 C 1.49273 37.5934 0 39.0767 0 40.9067 C 0.0749556 84.2303 35.4007 119.332 79 119.407 C 122.615 119.369 157.962 84.2455 158 40.9067 C 158 39.0767 156.507 37.5934 154.666 37.5934 Z" stroke-linecap="round"/>
</g>
</g>
</g>
		<g transform="matrix(-1.0512 0 0 -1.0512 -3.4616 -10.9772)" id="28882">
<g style="">
		<g transform="matrix(0.1537 -0.1537 0.1395 0.1394 -0.0007 -0.0004)" id="580889">
<path style="stroke: rgb(47,53,64); stroke-width: 2; stroke-dasharray: none; stroke-linecap: butt; stroke-dashoffset: 0; stroke-linejoin: miter; stroke-miterlimit: 4; is-custom-font: none; font-file-url: none; fill: none; fill-rule: nonzero; opacity: 1;" vector-effect="non-scaling-stroke" transform=" translate(-79, -78.5002)" d="M 154.666 37.5934 H 3.33409 C 1.49273 37.5934 0 39.0767 0 40.9067 C 0.0749556 84.2303 35.4007 119.332 79 119.407 C 122.615 119.369 157.962 84.2455 158 40.9067 C 158 39.0767 156.507 37.5934 154.666 37.5934 Z" stroke-linecap="round"/>
</g>
		<g transform="matrix(0.1247 -0.1247 0.0987 0.0987 -0.1502 -0.1669)" id="120498">
<path style="stroke: none; stroke-width: 0; stroke-dasharray: none; stroke-linecap: butt; stroke-dashoffset: 0; stroke-linejoin: miter; stroke-miterlimit: 4; is-custom-font: none; font-file-url: none; fill: rgb(47,53,64); fill-rule: nonzero; opacity: 1;" vector-effect="non-scaling-stroke" transform=" translate(-79, -78.5002)" d="M 154.666 37.5934 H 3.33409 C 1.49273 37.5934 0 39.0767 0 40.9067 C 0.0749556 84.2303 35.4007 119.332 79 119.407 C 122.615 119.369 157.962 84.2455 158 40.9067 C 158 39.0767 156.507 37.5934 154.666 37.5934 Z" stroke-linecap="round"/>
</g>
</g>
</g>
</g>
</g>
<g transform="matrix(0.5573 0 0 0.5573 656.5878 794.4205)" id="400016">
<g style="">
		<g transform="matrix(0.1537 -0.1537 0.1395 0.1394 -0.0007 -0.0004)" id="580889">
<path style="stroke: rgb(47,53,64); stroke-width: 2; stroke-dasharray: none; stroke-linecap: butt; stroke-dashoffset: 0; stroke-linejoin: miter; stroke-miterlimit: 4; is-custom-font: none; font-file-url: none; fill: none; fill-rule: nonzero; opacity: 1;" vector-effect="non-scaling-stroke" transform=" translate(-79, -78.5002)" d="M 154.666 37.5934 H 3.33409 C 1.49273 37.5934 0 39.0767 0 40.9067 C 0.0749556 84.2303 35.4007 119.332 79 119.407 C 122.615 119.369 157.962 84.2455 158 40.9067 C 158 39.0767 156.507 37.5934 154.666 37.5934 Z" stroke-linecap="round"/>
</g>
		<g transform="matrix(0.1247 -0.1247 0.0987 0.0987 -0.1502 -0.1669)" id="120498">
<path style="stroke: none; stroke-width: 0; stroke-dasharray: none; stroke-linecap: butt; stroke-dashoffset: 0; stroke-linejoin: miter; stroke-miterlimit: 4; is-custom-font: none; font-file-url: none; fill: rgb(47,53,64); fill-rule: nonzero; opacity: 1;" vector-effect="non-scaling-stroke" transform=" translate(-79, -78.5002)" d="M 154.666 37.5934 H 3.33409 C 1.49273 37.5934 0 39.0767 0 40.9067 C 0.0749556 84.2303 35.4007 119.332 79 119.407 C 122.615 119.369 157.962 84.2455 158 40.9067 C 158 39.0767 156.507 37.5934 154.666 37.5934 Z" stroke-linecap="round"/>
</g>
</g>
</g>
<g transform="matrix(-0.6221 0 0 -0.6221 491.1499 849.8961)" id="826627">
<g style="">
		<g transform="matrix(0.1537 -0.1537 0.1395 0.1394 -0.0007 -0.0004)" id="580889">
<path style="stroke: rgb(47,53,64); stroke-width: 2; stroke-dasharray: none; stroke-linecap: butt; stroke-dashoffset: 0; stroke-linejoin: miter; stroke-miterlimit: 4; is-custom-font: none; font-file-url: none; fill: none; fill-rule: nonzero; opacity: 1;" vector-effect="non-scaling-stroke" transform=" translate(-79, -78.5002)" d="M 154.666 37.5934 H 3.33409 C 1.49273 37.5934 0 39.0767 0 40.9067 C 0.0749556 84.2303 35.4007 119.332 79 119.407 C 122.615 119.369 157.962 84.2455 158 40.9067 C 158 39.0767 156.507 37.5934 154.666 37.5934 Z" stroke-linecap="round"/>
</g>
		<g transform="matrix(0.1247 -0.1247 0.0987 0.0987 -0.1502 -0.1669)" id="120498">
<path style="stroke: none; stroke-width: 0; stroke-dasharray: none; stroke-linecap: butt; stroke-dashoffset: 0; stroke-linejoin: miter; stroke-miterlimit: 4; is-custom-font: none; font-file-url: none; fill: rgb(47,53,64); fill-rule: nonzero; opacity: 1;" vector-effect="non-scaling-stroke" transform=" translate(-79, -78.5002)" d="M 154.666 37.5934 H 3.33409 C 1.49273 37.5934 0 39.0767 0 40.9067 C 0.0749556 84.2303 35.4007 119.332 79 119.407 C 122.615 119.369 157.962 84.2455 158 40.9067 C 158 39.0767 156.507 37.5934 154.666 37.5934 Z" stroke-linecap="round"/>
</g>
</g>
</g>
<g transform="matrix(0.4316 0 0 0.4316 537.4554 731.5629)" id="59551">
<g style="">
		<g transform="matrix(1.0512 0 0 1.0512 3.4625 10.9781)" id="717005">
<g style="">
		<g transform="matrix(0.1537 -0.1537 0.1395 0.1394 -0.0007 -0.0004)" id="580889">
<path style="stroke: rgb(47,53,64); stroke-width: 2; stroke-dasharray: none; stroke-linecap: butt; stroke-dashoffset: 0; stroke-linejoin: miter; stroke-miterlimit: 4; is-custom-font: none; font-file-url: none; fill: none; fill-rule: nonzero; opacity: 1;" vector-effect="non-scaling-stroke" transform=" translate(-79, -78.5002)" d="M 154.666 37.5934 H 3.33409 C 1.49273 37.5934 0 39.0767 0 40.9067 C 0.0749556 84.2303 35.4007 119.332 79 119.407 C 122.615 119.369 157.962 84.2455 158 40.9067 C 158 39.0767 156.507 37.5934 154.666 37.5934 Z" stroke-linecap="round"/>
</g>
		<g transform="matrix(0.1247 -0.1247 0.0987 0.0987 -0.1502 -0.1669)" id="120498">
<path style="stroke: none; stroke-width: 0; stroke-dasharray: none; stroke-linecap: butt; stroke-dashoffset: 0; stroke-linejoin: miter; stroke-miterlimit: 4; is-custom-font: none; font-file-url: none; fill: rgb(47,53,64); fill-rule: nonzero; opacity: 1;" vector-effect="non-scaling-stroke" transform=" translate(-79, -78.5002)" d="M 154.666 37.5934 H 3.33409 C 1.49273 37.5934 0 39.0767 0 40.9067 C 0.0749556 84.2303 35.4007 119.332 79 119.407 C 122.615 119.369 157.962 84.2455 158 40.9067 C 158 39.0767 156.507 37.5934 154.666 37.5934 Z" stroke-linecap="round"/>
</g>
</g>
</g>
		<g transform="matrix(-1.0512 0 0 -1.0512 -3.4616 -10.9772)" id="28882">
<g style="">
		<g transform="matrix(0.1537 -0.1537 0.1395 0.1394 -0.0007 -0.0004)" id="580889">
<path style="stroke: rgb(47,53,64); stroke-width: 2; stroke-dasharray: none; stroke-linecap: butt; stroke-dashoffset: 0; stroke-linejoin: miter; stroke-miterlimit: 4; is-custom-font: none; font-file-url: none; fill: none; fill-rule: nonzero; opacity: 1;" vector-effect="non-scaling-stroke" transform=" translate(-79, -78.5002)" d="M 154.666 37.5934 H 3.33409 C 1.49273 37.5934 0 39.0767 0 40.9067 C 0.0749556 84.2303 35.4007 119.332 79 119.407 C 122.615 119.369 157.962 84.2455 158 40.9067 C 158 39.0767 156.507 37.5934 154.666 37.5934 Z" stroke-linecap="round"/>
</g>
		<g transform="matrix(0.1247 -0.1247 0.0987 0.0987 -0.1502 -0.1669)" id="120498">
<path style="stroke: none; stroke-width: 0; stroke-dasharray: none; stroke-linecap: butt; stroke-dashoffset: 0; stroke-linejoin: miter; stroke-miterlimit: 4; is-custom-font: none; font-file-url: none; fill: rgb(47,53,64); fill-rule: nonzero; opacity: 1;" vector-effect="non-scaling-stroke" transform=" translate(-79, -78.5002)" d="M 154.666 37.5934 H 3.33409 C 1.49273 37.5934 0 39.0767 0 40.9067 C 0.0749556 84.2303 35.4007 119.332 79 119.407 C 122.615 119.369 157.962 84.2455 158 40.9067 C 158 39.0767 156.507 37.5934 154.666 37.5934 Z" stroke-linecap="round"/>
</g>
</g>
</g>
</g>
</g>
<g transform="matrix(0.4316 0 0 0.4316 614.4806 937.2274)" id="305962">
<g style="">
		<g transform="matrix(1.0512 0 0 1.0512 3.4625 10.9781)" id="717005">
<g style="">
		<g transform="matrix(0.1537 -0.1537 0.1395 0.1394 -0.0007 -0.0004)" id="580889">
<path style="stroke: rgb(47,53,64); stroke-width: 2; stroke-dasharray: none; stroke-linecap: butt; stroke-dashoffset: 0; stroke-linejoin: miter; stroke-miterlimit: 4; is-custom-font: none; font-file-url: none; fill: none; fill-rule: nonzero; opacity: 1;" vector-effect="non-scaling-stroke" transform=" translate(-79, -78.5002)" d="M 154.666 37.5934 H 3.33409 C 1.49273 37.5934 0 39.0767 0 40.9067 C 0.0749556 84.2303 35.4007 119.332 79 119.407 C 122.615 119.369 157.962 84.2455 158 40.9067 C 158 39.0767 156.507 37.5934 154.666 37.5934 Z" stroke-linecap="round"/>
</g>
		<g transform="matrix(0.1247 -0.1247 0.0987 0.0987 -0.1502 -0.1669)" id="120498">
<path style="stroke: none; stroke-width: 0; stroke-dasharray: none; stroke-linecap: butt; stroke-dashoffset: 0; stroke-linejoin: miter; stroke-miterlimit: 4; is-custom-font: none; font-file-url: none; fill: rgb(47,53,64); fill-rule: nonzero; opacity: 1;" vector-effect="non-scaling-stroke" transform=" translate(-79, -78.5002)" d="M 154.666 37.5934 H 3.33409 C 1.49273 37.5934 0 39.0767 0 40.9067 C 0.0749556 84.2303 35.4007 119.332 79 119.407 C 122.615 119.369 157.962 84.2455 158 40.9067 C 158 39.0767 156.507 37.5934 154.666 37.5934 Z" stroke-linecap="round"/>
</g>
</g>
</g>
		<g transform="matrix(-1.0512 0 0 -1.0512 -3.4616 -10.9772)" id="28882">
<g style="">
		<g transform="matrix(0.1537 -0.1537 0.1395 0.1394 -0.0007 -0.0004)" id="580889">
<path style="stroke: rgb(47,53,64); stroke-width: 2; stroke-dasharray: none; stroke-linecap: butt; stroke-dashoffset: 0; stroke-linejoin: miter; stroke-miterlimit: 4; is-custom-font: none; font-file-url: none; fill: none; fill-rule: nonzero; opacity: 1;" vector-effect="non-scaling-stroke" transform=" translate(-79, -78.5002)" d="M 154.666 37.5934 H 3.33409 C 1.49273 37.5934 0 39.0767 0 40.9067 C 0.0749556 84.2303 35.4007 119.332 79 119.407 C 122.615 119.369 157.962 84.2455 158 40.9067 C 158 39.0767 156.507 37.5934 154.666 37.5934 Z" stroke-linecap="round"/>
</g>
		<g transform="matrix(0.1247 -0.1247 0.0987 0.0987 -0.1502 -0.1669)" id="120498">
<path style="stroke: none; stroke-width: 0; stroke-dasharray: none; stroke-linecap: butt; stroke-dashoffset: 0; stroke-linejoin: miter; stroke-miterlimit: 4; is-custom-font: none; font-file-url: none; fill: rgb(47,53,64); fill-rule: nonzero; opacity: 1;" vector-effect="non-scaling-stroke" transform=" translate(-79, -78.5002)" d="M 154.666 37.5934 H 3.33409 C 1.49273 37.5934 0 39.0767 0 40.9067 C 0.0749556 84.2303 35.4007 119.332 79 119.407 C 122.615 119.369 157.962 84.2455 158 40.9067 C 158 39.0767 156.507 37.5934 154.666 37.5934 Z" stroke-linecap="round"/>
</g>
</g>
</g>
</g>
</g>
<g transform="matrix(0.5573 0 0 0.5573 832.2716 797.5952)" id="172440">
<g style="">
		<g transform="matrix(0.1537 -0.1537 0.1395 0.1394 -0.0007 -0.0004)" id="580889">
<path style="stroke: rgb(47,53,64); stroke-width: 2; stroke-dasharray: none; stroke-linecap: butt; stroke-dashoffset: 0; stroke-linejoin: miter; stroke-miterlimit: 4; is-custom-font: none; font-file-url: none; fill: none; fill-rule: nonzero; opacity: 1;" vector-effect="non-scaling-stroke" transform=" translate(-79, -78.5002)" d="M 154.666 37.5934 H 3.33409 C 1.49273 37.5934 0 39.0767 0 40.9067 C 0.0749556 84.2303 35.4007 119.332 79 119.407 C 122.615 119.369 157.962 84.2455 158 40.9067 C 158 39.0767 156.507 37.5934 154.666 37.5934 Z" stroke-linecap="round"/>
</g>
		<g transform="matrix(0.1247 -0.1247 0.0987 0.0987 -0.1502 -0.1669)" id="120498">
<path style="stroke: none; stroke-width: 0; stroke-dasharray: none; stroke-linecap: butt; stroke-dashoffset: 0; stroke-linejoin: miter; stroke-miterlimit: 4; is-custom-font: none; font-file-url: none; fill: rgb(47,53,64); fill-rule: nonzero; opacity: 1;" vector-effect="non-scaling-stroke" transform=" translate(-79, -78.5002)" d="M 154.666 37.5934 H 3.33409 C 1.49273 37.5934 0 39.0767 0 40.9067 C 0.0749556 84.2303 35.4007 119.332 79 119.407 C 122.615 119.369 157.962 84.2455 158 40.9067 C 158 39.0767 156.507 37.5934 154.666 37.5934 Z" stroke-linecap="round"/>
</g>
</g>
</g>
<g transform="matrix(0.4316 0 0 0.4316 790.1644 940.4021)" id="973330">
<g style="">
		<g transform="matrix(1.0512 0 0 1.0512 3.4625 10.9781)" id="717005">
<g style="">
		<g transform="matrix(0.1537 -0.1537 0.1395 0.1394 -0.0007 -0.0004)" id="580889">
<path style="stroke: rgb(47,53,64); stroke-width: 2; stroke-dasharray: none; stroke-linecap: butt; stroke-dashoffset: 0; stroke-linejoin: miter; stroke-miterlimit: 4; is-custom-font: none; font-file-url: none; fill: none; fill-rule: nonzero; opacity: 1;" vector-effect="non-scaling-stroke" transform=" translate(-79, -78.5002)" d="M 154.666 37.5934 H 3.33409 C 1.49273 37.5934 0 39.0767 0 40.9067 C 0.0749556 84.2303 35.4007 119.332 79 119.407 C 122.615 119.369 157.962 84.2455 158 40.9067 C 158 39.0767 156.507 37.5934 154.666 37.5934 Z" stroke-linecap="round"/>
</g>
		<g transform="matrix(0.1247 -0.1247 0.0987 0.0987 -0.1502 -0.1669)" id="120498">
<path style="stroke: none; stroke-width: 0; stroke-dasharray: none; stroke-linecap: butt; stroke-dashoffset: 0; stroke-linejoin: miter; stroke-miterlimit: 4; is-custom-font: none; font-file-url: none; fill: rgb(47,53,64); fill-rule: nonzero; opacity: 1;" vector-effect="non-scaling-stroke" transform=" translate(-79, -78.5002)" d="M 154.666 37.5934 H 3.33409 C 1.49273 37.5934 0 39.0767 0 40.9067 C 0.0749556 84.2303 35.4007 119.332 79 119.407 C 122.615 119.369 157.962 84.2455 158 40.9067 C 158 39.0767 156.507 37.5934 154.666 37.5934 Z" stroke-linecap="round"/>
</g>
</g>
</g>
		<g transform="matrix(-1.0512 0 0 -1.0512 -3.4616 -10.9772)" id="28882">
<g style="">
		<g transform="matrix(0.1537 -0.1537 0.1395 0.1394 -0.0007 -0.0004)" id="580889">
<path style="stroke: rgb(47,53,64); stroke-width: 2; stroke-dasharray: none; stroke-linecap: butt; stroke-dashoffset: 0; stroke-linejoin: miter; stroke-miterlimit: 4; is-custom-font: none; font-file-url: none; fill: none; fill-rule: nonzero; opacity: 1;" vector-effect="non-scaling-stroke" transform=" translate(-79, -78.5002)" d="M 154.666 37.5934 H 3.33409 C 1.49273 37.5934 0 39.0767 0 40.9067 C 0.0749556 84.2303 35.4007 119.332 79 119.407 C 122.615 119.369 157.962 84.2455 158 40.9067 C 158 39.0767 156.507 37.5934 154.666 37.5934 Z" stroke-linecap="round"/>
</g>
		<g transform="matrix(0.1247 -0.1247 0.0987 0.0987 -0.1502 -0.1669)" id="120498">
<path style="stroke: none; stroke-width: 0; stroke-dasharray: none; stroke-linecap: butt; stroke-dashoffset: 0; stroke-linejoin: miter; stroke-miterlimit: 4; is-custom-font: none; font-file-url: none; fill: rgb(47,53,64); fill-rule: nonzero; opacity: 1;" vector-effect="non-scaling-stroke" transform=" translate(-79, -78.5002)" d="M 154.666 37.5934 H 3.33409 C 1.49273 37.5934 0 39.0767 0 40.9067 C 0.0749556 84.2303 35.4007 119.332 79 119.407 C 122.615 119.369 157.962 84.2455 158 40.9067 C 158 39.0767 156.507 37.5934 154.666 37.5934 Z" stroke-linecap="round"/>
</g>
</g>
</g>
</g>
</g>
<g transform="matrix(0.5573 0 0 0.5573 918.8991 190.9912)" id="211277">
<g style="">
		<g transform="matrix(0.1537 -0.1537 0.1395 0.1394 -0.0007 -0.0004)" id="580889">
<path style="stroke: rgb(47,53,64); stroke-width: 2; stroke-dasharray: none; stroke-linecap: butt; stroke-dashoffset: 0; stroke-linejoin: miter; stroke-miterlimit: 4; is-custom-font: none; font-file-url: none; fill: none; fill-rule: nonzero; opacity: 1;" vector-effect="non-scaling-stroke" transform=" translate(-79, -78.5002)" d="M 154.666 37.5934 H 3.33409 C 1.49273 37.5934 0 39.0767 0 40.9067 C 0.0749556 84.2303 35.4007 119.332 79 119.407 C 122.615 119.369 157.962 84.2455 158 40.9067 C 158 39.0767 156.507 37.5934 154.666 37.5934 Z" stroke-linecap="round"/>
</g>
		<g transform="matrix(0.1247 -0.1247 0.0987 0.0987 -0.1502 -0.1669)" id="120498">
<path style="stroke: none; stroke-width: 0; stroke-dasharray: none; stroke-linecap: butt; stroke-dashoffset: 0; stroke-linejoin: miter; stroke-miterlimit: 4; is-custom-font: none; font-file-url: none; fill: rgb(47,53,64); fill-rule: nonzero; opacity: 1;" vector-effect="non-scaling-stroke" transform=" translate(-79, -78.5002)" d="M 154.666 37.5934 H 3.33409 C 1.49273 37.5934 0 39.0767 0 40.9067 C 0.0749556 84.2303 35.4007 119.332 79 119.407 C 122.615 119.369 157.962 84.2455 158 40.9067 C 158 39.0767 156.507 37.5934 154.666 37.5934 Z" stroke-linecap="round"/>
</g>
</g>
</g>
<g transform="matrix(0.4316 0 0 0.4316 876.7919 333.7981)" id="894243">
<g style="">
		<g transform="matrix(1.0512 0 0 1.0512 3.4625 10.9781)" id="717005">
<g style="">
		<g transform="matrix(0.1537 -0.1537 0.1395 0.1394 -0.0007 -0.0004)" id="580889">
<path style="stroke: rgb(47,53,64); stroke-width: 2; stroke-dasharray: none; stroke-linecap: butt; stroke-dashoffset: 0; stroke-linejoin: miter; stroke-miterlimit: 4; is-custom-font: none; font-file-url: none; fill: none; fill-rule: nonzero; opacity: 1;" vector-effect="non-scaling-stroke" transform=" translate(-79, -78.5002)" d="M 154.666 37.5934 H 3.33409 C 1.49273 37.5934 0 39.0767 0 40.9067 C 0.0749556 84.2303 35.4007 119.332 79 119.407 C 122.615 119.369 157.962 84.2455 158 40.9067 C 158 39.0767 156.507 37.5934 154.666 37.5934 Z" stroke-linecap="round"/>
</g>
		<g transform="matrix(0.1247 -0.1247 0.0987 0.0987 -0.1502 -0.1669)" id="120498">
<path style="stroke: none; stroke-width: 0; stroke-dasharray: none; stroke-linecap: butt; stroke-dashoffset: 0; stroke-linejoin: miter; stroke-miterlimit: 4; is-custom-font: none; font-file-url: none; fill: rgb(47,53,64); fill-rule: nonzero; opacity: 1;" vector-effect="non-scaling-stroke" transform=" translate(-79, -78.5002)" d="M 154.666 37.5934 H 3.33409 C 1.49273 37.5934 0 39.0767 0 40.9067 C 0.0749556 84.2303 35.4007 119.332 79 119.407 C 122.615 119.369 157.962 84.2455 158 40.9067 C 158 39.0767 156.507 37.5934 154.666 37.5934 Z" stroke-linecap="round"/>
</g>
</g>
</g>
		<g transform="matrix(-1.0512 0 0 -1.0512 -3.4616 -10.9772)" id="28882">
<g style="">
		<g transform="matrix(0.1537 -0.1537 0.1395 0.1394 -0.0007 -0.0004)" id="580889">
<path style="stroke: rgb(47,53,64); stroke-width: 2; stroke-dasharray: none; stroke-linecap: butt; stroke-dashoffset: 0; stroke-linejoin: miter; stroke-miterlimit: 4; is-custom-font: none; font-file-url: none; fill: none; fill-rule: nonzero; opacity: 1;" vector-effect="non-scaling-stroke" transform=" translate(-79, -78.5002)" d="M 154.666 37.5934 H 3.33409 C 1.49273 37.5934 0 39.0767 0 40.9067 C 0.0749556 84.2303 35.4007 119.332 79 119.407 C 122.615 119.369 157.962 84.2455 158 40.9067 C 158 39.0767 156.507 37.5934 154.666 37.5934 Z" stroke-linecap="round"/>
</g>
		<g transform="matrix(0.1247 -0.1247 0.0987 0.0987 -0.1502 -0.1669)" id="120498">
<path style="stroke: none; stroke-width: 0; stroke-dasharray: none; stroke-linecap: butt; stroke-dashoffset: 0; stroke-linejoin: miter; stroke-miterlimit: 4; is-custom-font: none; font-file-url: none; fill: rgb(47,53,64); fill-rule: nonzero; opacity: 1;" vector-effect="non-scaling-stroke" transform=" translate(-79, -78.5002)" d="M 154.666 37.5934 H 3.33409 C 1.49273 37.5934 0 39.0767 0 40.9067 C 0.0749556 84.2303 35.4007 119.332 79 119.407 C 122.615 119.369 157.962 84.2455 158 40.9067 C 158 39.0767 156.507 37.5934 154.666 37.5934 Z" stroke-linecap="round"/>
</g>
</g>
</g>
</g>
</g>
<g transform="matrix(0.5573 0 0 0.5573 409.055 685.1741)" id="375397">
<g style="">
		<g transform="matrix(0.1537 -0.1537 0.1395 0.1394 -0.0007 -0.0004)" id="580889">
<path style="stroke: rgb(47,53,64); stroke-width: 2; stroke-dasharray: none; stroke-linecap: butt; stroke-dashoffset: 0; stroke-linejoin: miter; stroke-miterlimit: 4; is-custom-font: none; font-file-url: none; fill: none; fill-rule: nonzero; opacity: 1;" vector-effect="non-scaling-stroke" transform=" translate(-79, -78.5002)" d="M 154.666 37.5934 H 3.33409 C 1.49273 37.5934 0 39.0767 0 40.9067 C 0.0749556 84.2303 35.4007 119.332 79 119.407 C 122.615 119.369 157.962 84.2455 158 40.9067 C 158 39.0767 156.507 37.5934 154.666 37.5934 Z" stroke-linecap="round"/>
</g>
		<g transform="matrix(0.1247 -0.1247 0.0987 0.0987 -0.1502 -0.1669)" id="120498">
<path style="stroke: none; stroke-width: 0; stroke-dasharray: none; stroke-linecap: butt; stroke-dashoffset: 0; stroke-linejoin: miter; stroke-miterlimit: 4; is-custom-font: none; font-file-url: none; fill: rgb(47,53,64); fill-rule: nonzero; opacity: 1;" vector-effect="non-scaling-stroke" transform=" translate(-79, -78.5002)" d="M 154.666 37.5934 H 3.33409 C 1.49273 37.5934 0 39.0767 0 40.9067 C 0.0749556 84.2303 35.4007 119.332 79 119.407 C 122.615 119.369 157.962 84.2455 158 40.9067 C 158 39.0767 156.507 37.5934 154.666 37.5934 Z" stroke-linecap="round"/>
</g>
</g>
</g>
<g transform="matrix(0.4316 0 0 0.4316 366.9478 827.981)" id="813289">
<g style="">
		<g transform="matrix(1.0512 0 0 1.0512 3.4625 10.9781)" id="717005">
<g style="">
		<g transform="matrix(0.1537 -0.1537 0.1395 0.1394 -0.0007 -0.0004)" id="580889">
<path style="stroke: rgb(47,53,64); stroke-width: 2; stroke-dasharray: none; stroke-linecap: butt; stroke-dashoffset: 0; stroke-linejoin: miter; stroke-miterlimit: 4; is-custom-font: none; font-file-url: none; fill: none; fill-rule: nonzero; opacity: 1;" vector-effect="non-scaling-stroke" transform=" translate(-79, -78.5002)" d="M 154.666 37.5934 H 3.33409 C 1.49273 37.5934 0 39.0767 0 40.9067 C 0.0749556 84.2303 35.4007 119.332 79 119.407 C 122.615 119.369 157.962 84.2455 158 40.9067 C 158 39.0767 156.507 37.5934 154.666 37.5934 Z" stroke-linecap="round"/>
</g>
		<g transform="matrix(0.1247 -0.1247 0.0987 0.0987 -0.1502 -0.1669)" id="120498">
<path style="stroke: none; stroke-width: 0; stroke-dasharray: none; stroke-linecap: butt; stroke-dashoffset: 0; stroke-linejoin: miter; stroke-miterlimit: 4; is-custom-font: none; font-file-url: none; fill: rgb(47,53,64); fill-rule: nonzero; opacity: 1;" vector-effect="non-scaling-stroke" transform=" translate(-79, -78.5002)" d="M 154.666 37.5934 H 3.33409 C 1.49273 37.5934 0 39.0767 0 40.9067 C 0.0749556 84.2303 35.4007 119.332 79 119.407 C 122.615 119.369 157.962 84.2455 158 40.9067 C 158 39.0767 156.507 37.5934 154.666 37.5934 Z" stroke-linecap="round"/>
</g>
</g>
</g>
		<g transform="matrix(-1.0512 0 0 -1.0512 -3.4616 -10.9772)" id="28882">
<g style="">
		<g transform="matrix(0.1537 -0.1537 0.1395 0.1394 -0.0007 -0.0004)" id="580889">
<path style="stroke: rgb(47,53,64); stroke-width: 2; stroke-dasharray: none; stroke-linecap: butt; stroke-dashoffset: 0; stroke-linejoin: miter; stroke-miterlimit: 4; is-custom-font: none; font-file-url: none; fill: none; fill-rule: nonzero; opacity: 1;" vector-effect="non-scaling-stroke" transform=" translate(-79, -78.5002)" d="M 154.666 37.5934 H 3.33409 C 1.49273 37.5934 0 39.0767 0 40.9067 C 0.0749556 84.2303 35.4007 119.332 79 119.407 C 122.615 119.369 157.962 84.2455 158 40.9067 C 158 39.0767 156.507 37.5934 154.666 37.5934 Z" stroke-linecap="round"/>
</g>
		<g transform="matrix(0.1247 -0.1247 0.0987 0.0987 -0.1502 -0.1669)" id="120498">
<path style="stroke: none; stroke-width: 0; stroke-dasharray: none; stroke-linecap: butt; stroke-dashoffset: 0; stroke-linejoin: miter; stroke-miterlimit: 4; is-custom-font: none; font-file-url: none; fill: rgb(47,53,64); fill-rule: nonzero; opacity: 1;" vector-effect="non-scaling-stroke" transform=" translate(-79, -78.5002)" d="M 154.666 37.5934 H 3.33409 C 1.49273 37.5934 0 39.0767 0 40.9067 C 0.0749556 84.2303 35.4007 119.332 79 119.407 C 122.615 119.369 157.962 84.2455 158 40.9067 C 158 39.0767 156.507 37.5934 154.666 37.5934 Z" stroke-linecap="round"/>
</g>
</g>
</g>
</g>
</g>
<g transform="matrix(0.4316 0 0 0.4316 330.7183 461.2633)" id="879447">
<g style="">
		<g transform="matrix(1.0512 0 0 1.0512 3.4625 10.9781)" id="717005">
<g style="">
		<g transform="matrix(0.1537 -0.1537 0.1395 0.1394 -0.0007 -0.0004)" id="580889">
<path style="stroke: rgb(47,53,64); stroke-width: 2; stroke-dasharray: none; stroke-linecap: butt; stroke-dashoffset: 0; stroke-linejoin: miter; stroke-miterlimit: 4; is-custom-font: none; font-file-url: none; fill: none; fill-rule: nonzero; opacity: 1;" vector-effect="non-scaling-stroke" transform=" translate(-79, -78.5002)" d="M 154.666 37.5934 H 3.33409 C 1.49273 37.5934 0 39.0767 0 40.9067 C 0.0749556 84.2303 35.4007 119.332 79 119.407 C 122.615 119.369 157.962 84.2455 158 40.9067 C 158 39.0767 156.507 37.5934 154.666 37.5934 Z" stroke-linecap="round"/>
</g>
		<g transform="matrix(0.1247 -0.1247 0.0987 0.0987 -0.1502 -0.1669)" id="120498">
<path style="stroke: none; stroke-width: 0; stroke-dasharray: none; stroke-linecap: butt; stroke-dashoffset: 0; stroke-linejoin: miter; stroke-miterlimit: 4; is-custom-font: none; font-file-url: none; fill: rgb(47,53,64); fill-rule: nonzero; opacity: 1;" vector-effect="non-scaling-stroke" transform=" translate(-79, -78.5002)" d="M 154.666 37.5934 H 3.33409 C 1.49273 37.5934 0 39.0767 0 40.9067 C 0.0749556 84.2303 35.4007 119.332 79 119.407 C 122.615 119.369 157.962 84.2455 158 40.9067 C 158 39.0767 156.507 37.5934 154.666 37.5934 Z" stroke-linecap="round"/>
</g>
</g>
</g>
		<g transform="matrix(-1.0512 0 0 -1.0512 -3.4616 -10.9772)" id="28882">
<g style="">
		<g transform="matrix(0.1537 -0.1537 0.1395 0.1394 -0.0007 -0.0004)" id="580889">
<path style="stroke: rgb(47,53,64); stroke-width: 2; stroke-dasharray: none; stroke-linecap: butt; stroke-dashoffset: 0; stroke-linejoin: miter; stroke-miterlimit: 4; is-custom-font: none; font-file-url: none; fill: none; fill-rule: nonzero; opacity: 1;" vector-effect="non-scaling-stroke" transform=" translate(-79, -78.5002)" d="M 154.666 37.5934 H 3.33409 C 1.49273 37.5934 0 39.0767 0 40.9067 C 0.0749556 84.2303 35.4007 119.332 79 119.407 C 122.615 119.369 157.962 84.2455 158 40.9067 C 158 39.0767 156.507 37.5934 154.666 37.5934 Z" stroke-linecap="round"/>
</g>
		<g transform="matrix(0.1247 -0.1247 0.0987 0.0987 -0.1502 -0.1669)" id="120498">
<path style="stroke: none; stroke-width: 0; stroke-dasharray: none; stroke-linecap: butt; stroke-dashoffset: 0; stroke-linejoin: miter; stroke-miterlimit: 4; is-custom-font: none; font-file-url: none; fill: rgb(47,53,64); fill-rule: nonzero; opacity: 1;" vector-effect="non-scaling-stroke" transform=" translate(-79, -78.5002)" d="M 154.666 37.5934 H 3.33409 C 1.49273 37.5934 0 39.0767 0 40.9067 C 0.0749556 84.2303 35.4007 119.332 79 119.407 C 122.615 119.369 157.962 84.2455 158 40.9067 C 158 39.0767 156.507 37.5934 154.666 37.5934 Z" stroke-linecap="round"/>
</g>
</g>
</g>
</g>
</g>
</svg>